<?xml version="1.0" encoding="UTF-8" standalone="no"?>
<!-- Created with Inkscape (http://www.inkscape.org/) -->

<svg
   xmlns:dc="http://purl.org/dc/elements/1.1/"
   xmlns:cc="http://creativecommons.org/ns#"
   xmlns:rdf="http://www.w3.org/1999/02/22-rdf-syntax-ns#"
   xmlns:svg="http://www.w3.org/2000/svg"
   xmlns="http://www.w3.org/2000/svg"
   xmlns:sodipodi="http://sodipodi.sourceforge.net/DTD/sodipodi-0.dtd"
   xmlns:inkscape="http://www.inkscape.org/namespaces/inkscape"
   width="800"
   height="800"
   viewBox="0 0 211.66666 211.66667"
   version="1.1"
   id="svg3127"
   sodipodi:docname="chat-icon.svg"
   inkscape:version="0.92.4 (5da689c313, 2019-01-14)">
  <defs
     id="defs3121" />
  <sodipodi:namedview
     id="base"
     pagecolor="#ffffff"
     bordercolor="#666666"
     borderopacity="1.0"
     inkscape:pageopacity="0.0"
     inkscape:pageshadow="2"
     inkscape:zoom="0.69999999"
     inkscape:cx="38.571404"
     inkscape:cy="467.99668"
     inkscape:document-units="mm"
     inkscape:current-layer="layer1"
     showgrid="false"
     units="px"
     inkscape:window-width="1920"
     inkscape:window-height="1001"
     inkscape:window-x="-9"
     inkscape:window-y="-9"
     inkscape:window-maximized="1" />
  <metadata
     id="metadata3124">
    <rdf:RDF>
      <cc:Work
         rdf:about="">
        <dc:format>image/svg+xml</dc:format>
        <dc:type
           rdf:resource="http://purl.org/dc/dcmitype/StillImage" />
        <dc:title></dc:title>
      </cc:Work>
    </rdf:RDF>
  </metadata>
  <g
     inkscape:label="Layer 1"
     inkscape:groupmode="layer"
     id="layer1"
     transform="translate(0,-85.333317)">
    <rect
       style="opacity:1;fill:#4d4d4d;fill-opacity:0.94117647;stroke:none;stroke-width:0;stroke-linecap:round;stroke-linejoin:round;stroke-miterlimit:4;stroke-dasharray:none;stroke-dashoffset:0;stroke-opacity:1;paint-order:stroke markers fill"
       id="rect5885"
       width="211.66667"
       height="211.66667"
       x="-0.014821778"
       y="85.336319"
       ry="105.83334" />
    <flowRoot
       xml:space="preserve"
       id="flowRoot1407"
       style="font-style:normal;font-weight:normal;font-size:40px;line-height:1.25;font-family:sans-serif;letter-spacing:0px;word-spacing:0px;fill:#000000;fill-opacity:1;stroke:none"
       transform="matrix(0.26458333,0,0,0.26458333,0,85.333317)"><flowRegion
         id="flowRegion1409"><rect
           id="rect1411"
           width="400"
           height="211.42867"
           x="-854.28571"
           y="542.85712" /></flowRegion><flowPara
         id="flowPara1413"
         style="font-size:192px">SEO</flowPara></flowRoot>    <g
       id="g857"
       transform="rotate(-3.9169063,192.06376,-2005.0108)"
       style="opacity:0.98000004">
      <path
         style="opacity:1;fill:#cccccc;fill-opacity:1;stroke-width:1.53922164"
         d="m -24.055922,129.45705 -10.0454,-1.52603 c -28.6502,-4.35219 -55.219052,15.20899 -59.571202,43.85919 l -0.16952,1.11615 c -4.35216,28.65026 12.170852,54.42954 40.932082,57.97466 l 16.69784,2.05817 c 28.7612298,3.54511 51.49358,-14.14455 55.84581,-42.7948 l 0.16958,-1.11615 c 4.35222,-28.6502 -13.6165902,-54.97708 -43.85914,-59.57119 z"
         id="path851"
         inkscape:connector-curvature="0"
         sodipodi:nodetypes="sssssssss" />
      <path
         style="opacity:1;fill:#cccccc;fill-opacity:1;stroke-width:1.61816764"
         d="m -28.165432,211.13213 -44.970637,-6.12024 v 0 c 8.014382,16.77416 17.115377,35.00496 34.326687,44.70451 z"
         id="path853"
         inkscape:connector-curvature="0"
         sodipodi:nodetypes="ccccc" />
    </g>
    <g
       id="g877"
       transform="translate(-13.229167,2.6458334)">
      <path
         inkscape:connector-curvature="0"
         id="rect6351"
         transform="matrix(0.26458333,0,0,0.26458333,0,85.333317)"
         d="m 410.92773,121.56641 c -96.18972,0.004 -180.05787,69.92406 -194.96484,168.05664 l -0.64062,4.21875 c -16.44911,108.28444 45.99926,205.71831 154.70312,219.11718 l 63.10938,7.7793 c 108.70386,13.39884 194.62289,-53.45973 211.07226,-161.74414 l 0.64063,-4.21875 C 661.29699,246.49117 593.38263,146.98661 479.08008,129.62305 l -37.9668,-5.76758 c -10.15164,-1.54212 -20.23488,-2.28952 -30.18555,-2.28906 z m -61.44921,164.39453 c 1.53903,0.0169 3.09657,0.15041 4.66406,0.40625 16.71982,2.72896 27.98287,18.38564 25.2539,35.10547 -2.72896,16.71982 -18.38564,27.98482 -35.10546,25.25586 -16.71983,-2.72897 -27.98288,-18.3876 -25.25391,-35.10743 2.47312,-15.15234 15.56412,-25.82366 30.44141,-25.66015 z m 79.86718,15.8164 c 1.53903,0.0169 3.09658,0.14846 4.66407,0.4043 16.71982,2.72897 27.98482,18.3876 25.25585,35.10742 -2.72895,16.71983 -18.38759,27.98287 -35.10742,25.25391 -16.71982,-2.72897 -27.98287,-18.3876 -25.2539,-35.10742 2.47312,-15.15235 15.56412,-25.82171 30.4414,-25.65821 z m 80.00391,12.68164 c 1.53903,0.0169 3.09658,0.15041 4.66406,0.40625 16.71983,2.72897 27.98287,18.38565 25.25391,35.10547 -2.72897,16.71983 -18.38565,27.98287 -35.10547,25.25391 -16.71982,-2.72897 -27.98287,-18.38564 -25.25391,-35.10547 2.47313,-15.15234 15.56412,-25.82366 30.44141,-25.66016 z"
         style="opacity:1;fill:#18ffff;fill-opacity:1;stroke-width:5.81753063" />
      <path
         sodipodi:nodetypes="ccccc"
         inkscape:connector-curvature="0"
         id="rect6354"
         d="m 122.64707,201.30475 -44.970637,-6.12024 v 0 c 8.014382,16.77416 17.115377,35.00496 34.326687,44.70451 z"
         style="opacity:1;fill:#18ffff;fill-opacity:1;stroke-width:1.61816764" />
    </g>
  </g>
</svg>
