<?xml version="1.0" encoding="UTF-8"?>
<svg width="500" height="60" enable-background="new" version="1.1" viewBox="0 0 132.29 15.875" xmlns="http://www.w3.org/2000/svg" xmlns:cc="http://creativecommons.org/ns#" xmlns:dc="http://purl.org/dc/elements/1.1/" xmlns:rdf="http://www.w3.org/1999/02/22-rdf-syntax-ns#">
<defs>
<filter id="a" x="-.05072" y="-.7013" width="1.1014" height="2.4026" color-interpolation-filters="sRGB">
<feGaussianBlur stdDeviation="2.8060831"/>
<feBlend in2="BackgroundImage" mode="screen"/>
</filter>
</defs>
<metadata>
<rdf:RDF>
<cc:Work rdf:about="">
<dc:format>image/svg+xml</dc:format>
<dc:type rdf:resource="http://purl.org/dc/dcmitype/StillImage"/>
<dc:title/>
</cc:Work>
</rdf:RDF>
</metadata>
<path transform="matrix(.96648 0 0 1 .19736 -119.8)" d="m49.861 122.92c40.49 5.9358 71.494-4.5631 83.448 1.573-6.5776 7.9055-31.238 8.972-74.916 4.4657-23.67-2.9974-33.214-4.7082-57.864 0.76754 12.651-4.2698 18.725-9.9512 49.332-6.8063z" filter="url(#a)" opacity=".495" stroke-width="0" style="paint-order:stroke markers fill"/>
<path d="m48.423 0.92828c39.132 5.9358 69.098-4.5631 80.651 1.573-6.3571 7.9055-30.191 8.972-72.405 4.4657-22.876-2.9974-32.1-4.7082-55.925 0.76754 12.227-4.2698 18.097-9.9512 47.678-6.8063z" fill="#cddc39" stroke-width="0" style="paint-order:stroke markers fill"/>
</svg>
