<?xml version="1.0" encoding="UTF-8"?>
<svg width="100" height="100" version="1.1" viewBox="0 0 26.458 26.458" xmlns="http://www.w3.org/2000/svg" xmlns:cc="http://creativecommons.org/ns#" xmlns:dc="http://purl.org/dc/elements/1.1/" xmlns:rdf="http://www.w3.org/1999/02/22-rdf-syntax-ns#" xmlns:xlink="http://www.w3.org/1999/xlink">
<defs>
<linearGradient id="a" x1="10.691" x2=".26727" y1="284.44" y2="269.4" gradientUnits="userSpaceOnUse">
<stop stop-color="#deaa6e" offset="0"/>
<stop stop-color="#deaa6e" stop-opacity="0" offset="1"/>
</linearGradient>
</defs>
<metadata>
<rdf:RDF>
<cc:Work rdf:about="">
<dc:format>image/svg+xml</dc:format>
<dc:type rdf:resource="http://purl.org/dc/dcmitype/StillImage"/>
<dc:title/>
</cc:Work>
</rdf:RDF>
</metadata>
<g transform="translate(0 -270.54)">
<g stroke-width="0">
<path d="m13.775 274.24c0.91551 0 3.5364 0.60187 4.3703 0.85205 3.8351 1.1505 4.8819 4.2866 4.8819 8.5776 0 2.424-0.01985 4.562-1.4844 6.229-1.6917 1.9256-5.0205 3.2006-7.7679 3.2006-2.9074 0.37717-7.6694-1.6841-8.3779-4.2218-1.0517-1.4492-1.2084-3.3654-1.2084-5.2078 0-1.6212 0.26377-3.8793 0.96513-5.2091 1.5586-2.9552 5.0861-4.2206 8.6212-4.2206z" fill="url(#a)" style="paint-order:stroke markers fill"/>
<path d="m10.49 277.56c0.36845 0.95231 0.68025 1.8952 0 2.6727-1.127 1.3055-1.9162 0.58359-2.8731 0.86863-0.6452-2.471 1.886-4.9828 2.8731-3.5413z" fill="#2b1100" style="paint-order:stroke markers fill"/>
<path d="m14.967 281.7c0.93821 3.3415-2.817 3.53-2.0518 2.2866-0.02563-2.4193-0.26034-2.2866 2.0518-2.2866z" fill="#2b1100" style="paint-order:stroke markers fill"/>
<path d="m17.373 277.09c0.10367 1.0989-0.13134 0.93544-1.1359 0.93544-0.18715-1.1694 0.8082-1.7135 1.1359-0.93544z" fill="#2b1100" style="paint-order:stroke markers fill"/>
<path d="m8.0181 286.71c2.6616-0.0314 4.5606 0.91727 2.3386 2.0713-2.6616 0.0314-2.3386-2.0713-2.3386-2.0713z" fill="#2b1100" style="paint-order:stroke markers fill"/>
<path d="m18.776 279.49c2.1787-0.4849 2.0192 0.89981 1.8041 2.4722-1.302 0.1343-1.8041-1.2972-1.8041-2.4722z" fill="#2b1100" style="paint-order:stroke markers fill"/>
<path d="m18.241 286.51c1.4228-1.8605 2.1455-0.92008 2.8731 0 0 0 0.83015 3.274-2.8731 3.274-0.34359-1.0914-1.0093-2.1827 0-3.274z" fill="#2b1100" style="paint-order:stroke markers fill"/>
<path d="m13.59 288.92c1.8528 1.2446 0.7395 2.0833-0.5482 3.011-0.99458-0.85091-0.30328-2.2012 0.5482-3.011z" fill="#2b1100" style="paint-order:stroke markers fill"/>
</g>
</g>
</svg>
