<?xml version="1.0" encoding="UTF-8"?>
<svg version="1.1" viewBox="0 0 1000 185.33" xmlns="http://www.w3.org/2000/svg">
<g transform="translate(-283.51 -410.44)">
<g transform="matrix(4.2191 0 0 4.2191 -384.03 -1510.8)" fill="#63666A">
<path d="m304.19 488.96v-28.64h3.6804l9.9597 17.44h0.15991l9.9597-17.44h3.6804v28.64h-3.6804v-17l0.16114-4.801h-0.16114l-8.96 15.72h-2.1594l-8.96-15.72h-0.15991l0.15991 4.801v17z"/>
<path d="m342.96 489.6c-2.0801 0-3.82-0.59998-5.2197-1.7999-1.3997-1.2-2.0996-2.7867-2.0996-4.7601 0-2.133 0.82662-3.8061 2.4799-5.0195 1.6532-1.2134 3.6932-1.8201 6.12-1.8201 2.1598 1e-5 3.9331 0.4 5.3198 1.2v-0.5603c-2e-5 -1.4396-0.49338-2.5928-1.4801-3.4595-0.98675-0.86669-2.2003-1.3-3.6408-1.3-1.0661 1e-5 -2.0325 0.25331-2.8992 0.75988-0.86671 0.50661-1.46 1.1998-1.7798 2.0795l-3.3606-1.4392c0.45328-1.1735 1.3466-2.2603 2.68-3.2605 1.3334-1.0001 3.0935-1.5002 5.2802-1.5002 2.5065 2e-5 4.5864 0.73346 6.2396 2.2003 1.6532 1.4669 2.4798 3.5337 2.4799 6.2006v11.84h-3.5193v-2.7197h-0.15991c-1.4673 2.2396-3.6141 3.3594-6.4404 3.3594zm0.60058-3.3594c1.5194 1e-5 2.8992-0.56681 4.1394-1.7004 1.2402-1.1336 1.8603-2.4735 1.8604-4.0198-1.04-0.85367-2.6001-1.2805-4.6802-1.2805-1.7871 1e-5 -3.134 0.38677-4.0405 1.1603-0.90659 0.77353-1.3599 1.6803-1.3599 2.7203 0 0.96029 0.41341 1.7204 1.2402 2.2803 0.82681 0.5599 1.7737 0.83985 2.8406 0.83984z"/>
<path d="m367.42 489.6c-1.4933 0-2.8335-0.32003-4.0204-0.96009-1.1869-0.64005-2.0734-1.4398-2.6593-2.3993h-0.15991l0.15991 2.7197v8.6401h-3.6804v-28.24h3.5205v2.7197h0.15991c0.58593-0.96027 1.4724-1.7604 2.6593-2.4005 1.1869-0.64003 2.527-0.96006 4.0204-0.96008 2.5334 2e-5 4.72 1.0002 6.5601 3.0005 1.84 2.0003 2.76 4.4804 2.76 7.4402-2e-5 2.9598-0.92003 5.4397-2.76 7.4396-1.84 1.9999-4.0267 2.9999-6.5601 2.9999zm-0.60059-3.3594c1.7065 1e-5 3.1732-0.64676 4.4-1.9403 1.2268-1.2935 1.8402-3.007 1.8402-5.1404-2e-5 -2.1334-0.61342-3.8466-1.8402-5.1398-1.2268-1.2931-2.6935-1.9397-4.4-1.9397-1.7334 1e-5 -3.2066 0.64007-4.4196 1.9202-1.213 1.2801-1.8195 3.0001-1.8195 5.1599 0 2.1598 0.60648 3.8798 1.8195 5.1599 1.213 1.2801 2.6862 1.9202 4.4196 1.9202z"/>
<path d="m387.4 489.6c-2.1867 0-3.9933-0.53325-5.4199-1.5997-1.4266-1.0665-2.4736-2.3997-3.1409-3.9996l3.28-1.3599c1.04 2.4528 2.8137 3.6792 5.321 3.6792 1.1466 0 2.0866-0.25329 2.8198-0.75989 0.73322-0.50659 1.0998-1.1733 1.0998-2.0001-1e-5 -1.2801-0.89356-2.1468-2.6807-2.6001l-3.96-0.95947c-1.2533-0.31982-2.4398-0.92651-3.5596-1.8201-1.1198-0.89354-1.6797-2.1-1.6797-3.6194 0-1.7334 0.7666-3.1402 2.2998-4.2206 1.5332-1.0803 3.3533-1.6205 5.4602-1.6205 1.7334 2e-5 3.28 0.39349 4.6399 1.1804 1.3598 0.78697 2.3332 1.9137 2.9199 3.3801l-3.2007 1.3196c-0.71941-1.7334-2.2127-2.6001-4.48-2.6001-1.0929 2e-5 -2.0127 0.22666-2.7594 0.67993-0.74667 0.45331-1.12 1.0669-1.12 1.8408-1e-5 1.1198 0.86669 1.8799 2.6001 2.2803l3.8794 0.91918c1.84 0.42645 3.2001 1.1597 4.0802 2.1997 0.88011 1.04 1.3202 2.2136 1.3202 3.5205-2e-5 1.7603-0.72003 3.2269-2.16 4.4-1.44 1.1731-3.2933 1.7596-5.5597 1.7596z"/>
</g>
<g transform="matrix(7.6936 0 0 7.6936 -2331.8 -2373.8)">
<path d="m357.97 370.42h-8.5268v2.5302h6.0472c-0.29874 3.548-3.2506 5.0611-6.037 5.0611-3.5649 0-6.6756-2.8048-6.6756-6.7362 0-3.8297 2.9653-6.7791 6.6835-6.7791 2.8686 0 4.5589 1.8287 4.5589 1.8287l1.7716-1.8346s-2.2739-2.5314-6.4211-2.5314c-5.2804 0-9.3658 4.4571-9.3658 9.2714 0 4.7174 3.8431 9.3176 9.5007 9.3176 4.9762 0 8.6188-3.4089 8.6188-8.4496 0-1.0635-0.1544-1.6781-0.1544-1.6781z" fill="#4285F4"/>
<path d="m364.95 368.58c-3.4987 0-6.0061 2.7353-6.0061 5.9254 0 3.2373 2.432 6.0235 6.0472 6.0235 3.2727 0 5.9539-2.5014 5.9539-5.9539 0-3.957-3.1188-5.995-5.995-5.995zm0.0348 2.3468c1.7206 0 3.351 1.391 3.351 3.6324 0 2.1939-1.6235 3.6245-3.3589 3.6245-1.9068 0-3.411-1.5272-3.411-3.6419 0-2.0694 1.4856-3.615 3.419-3.615z" fill="#EA4335"/>
<path d="m378.01 368.58c-3.4987 0-6.0061 2.7353-6.0061 5.9254 0 3.2373 2.432 6.0235 6.0472 6.0235 3.2727 0 5.9539-2.5014 5.9539-5.9539 0-3.957-3.1188-5.995-5.995-5.995zm0.0348 2.3468c1.7206 0 3.351 1.391 3.351 3.6324 0 2.1939-1.6235 3.6245-3.3589 3.6245-1.9068 0-3.411-1.5272-3.411-3.6419 0-2.0694 1.4856-3.615 3.419-3.615z" fill="#FBBC05"/>
<path d="m390.82 368.59c-3.2114 0-5.7357 2.8127-5.7357 5.9697 0 3.5961 2.9265 5.9808 5.6803 5.9808 1.7028 0 2.6082-0.67591 3.2766-1.4517v1.1781c0 2.0613-1.2516 3.2956-3.1406 3.2956-1.8249 0-2.7403-1.357-3.0584-2.127l-2.2962 0.9599c0.8146 1.7224 2.4543 3.5186 5.3735 3.5186 3.193 0 5.6266-2.0112 5.6266-6.2291v-10.736h-2.5049v1.0121c-0.76968-0.82992-1.8229-1.3711-3.2213-1.3711zm0.23246 2.342c1.5745 0 3.1912 1.3444 3.1912 3.6403 0 2.3336-1.6133 3.6198-3.226 3.6198-1.7121 0-3.3051-1.3902-3.3051-3.5976 0-2.2938 1.6545-3.6625 3.3399-3.6625z" fill="#4285F4"/>
<path d="m407.69 368.58c-3.0293 0-5.5728 2.4102-5.5728 5.9666 0 3.7631 2.8351 5.995 5.8638 5.995 2.5278 0 4.0792-1.3829 5.0051-2.6219l-2.0653-1.3742c-0.53593 0.83172-1.4319 1.6446-2.9271 1.6446-1.6796 0-2.4519-0.9197-2.9303-1.8107l8.0113-3.3241-0.4159-0.97413c-0.77424-1.9077-2.5797-3.5012-4.9687-3.5012zm0.10436 2.2978c1.0916 0 1.8772 0.58035 2.2108 1.2762l-5.3498 2.2361c-0.23064-1.7312 1.4094-3.5122 3.139-3.5122z" fill="#EA4335"/>
<path d="m398.3 380.18h2.6314v-17.61h-2.6314z" fill="#34A853"/>
</g>
</g>
</svg>
