<?xml version="1.0" encoding="UTF-8"?>
<svg width="520" height="390" version="1.1" viewBox="0 0 137.58 103.19" xmlns="http://www.w3.org/2000/svg" xmlns:cc="http://creativecommons.org/ns#" xmlns:dc="http://purl.org/dc/elements/1.1/" xmlns:rdf="http://www.w3.org/1999/02/22-rdf-syntax-ns#">
<metadata>
<rdf:RDF>
<cc:Work rdf:about="">
<dc:format>image/svg+xml</dc:format>
<dc:type rdf:resource="http://purl.org/dc/dcmitype/StillImage"/>
<dc:title/>
</cc:Work>
</rdf:RDF>
</metadata>
<g transform="matrix(1.0187 0 0 1 5.8987 -193.79)" stroke-width="0">
<rect x="-5.8243" y="201.73" width="4.4632" height="3.0376" fill="#ff0" style="paint-order:stroke markers fill"/>
<rect x="-5.8045" y="202.1" width="4.4434" height=".35079" fill="#f00" style="paint-order:stroke markers fill"/>
<rect x="-5.8163" y="202.75" width="4.4434" height=".35079" fill="#f00" style="paint-order:stroke markers fill"/>
<rect x="-5.8163" y="203.41" width="4.4434" height=".35079" fill="#f00" style="paint-order:stroke markers fill"/>
<rect x="-5.8163" y="204.07" width="4.4434" height=".35079" fill="#f00" style="paint-order:stroke markers fill"/>
<path d="m-5.8243 201.73 1.5839 1.5278-1.5839 1.5119z" fill="#000080" style="paint-order:stroke markers fill"/>
<path transform="rotate(-44.628,-5.1416,203.16)" d="m-5.1451 203.26-0.050079 0.25798-0.12073-0.23342-0.26082 0.0321 0.18468-0.18695-0.11112-0.23814 0.23487 0.11788 0.19215-0.17927-0.039528 0.2598 0.22987 0.12734z" fill="#fff" style="paint-order:stroke markers fill"/>
</g>
<g transform="matrix(.96724 0 0 1.0162 .29868 -201.58)" stroke-width="0">
<rect x="5.0877" y="221.71" width="4.526" height="3.0376" fill="#000080" style="paint-order:stroke markers fill"/>
<rect x="5.0792" y="222.92" width="4.5432" height=".62366" fill="#f00" style="paint-order:stroke markers fill"/>
<rect x="7.0837" y="221.7" width=".52917" height="3.057" fill="#f00" style="paint-order:stroke markers fill"/>
<g fill="#fff">
<path transform="matrix(.26458 0 0 .26458 0 193.81)" d="m25.955 105.41v3.7852h-6.7578v0.82226h7.5781v-4.6074z" style="paint-order:stroke markers fill"/>
<path d="m7.8299 221.7v1.0015h1.788v0.21756h-2.005v-1.219z" style="paint-order:stroke markers fill"/>
</g>
<g transform="matrix(1,0,0,-1,0,446.46)" fill="#fff">
<path transform="matrix(.26458 0 0 .26458 0 193.81)" d="m25.955 105.41v3.7852h-6.7578v0.82226h7.5781v-4.6074z" style="paint-order:stroke markers fill"/>
<path d="m7.8299 221.7v1.0015h1.788v0.21756h-2.005v-1.219z" style="paint-order:stroke markers fill"/>
</g>
<path d="m5.0905 221.88-0.00279-0.17561 1.5108 0.99792-0.26132-3.7e-4z" fill="#f00" style="paint-order:stroke markers fill"/>
<path d="m5.0892 221.96 0.00139-0.0775 1.2467 0.82194-0.11981 8.4e-4z" fill="#fff" style="paint-order:stroke markers fill"/>
<path d="m5.0877 221.71 0.23276-3.6e-4 1.5468 0.99829-0.26872-1e-5z" fill="#fff" style="paint-order:stroke markers fill"/>
<g transform="rotate(180,7.3486,223.23)">
<path d="m5.0905 221.88-0.00279-0.17561 1.5108 0.99792-0.26132-3.7e-4z" fill="#f00" style="paint-order:stroke markers fill"/>
<path d="m5.0892 221.96 0.00139-0.0775 1.2467 0.82194-0.11981 8.4e-4z" fill="#fff" style="paint-order:stroke markers fill"/>
<path d="m5.0877 221.71 0.23276-3.6e-4 1.5468 0.99829-0.26872-1e-5z" fill="#fff" style="paint-order:stroke markers fill"/>
</g>
<path d="m9.6095 221.71-0.29478-3.6e-4 -1.4848 0.99829 0.26872-1e-5z" fill="#fff" style="paint-order:stroke markers fill"/>
<path d="m9.6124 221.95 0.00134-0.24429-1.5151 0.99791 0.38113 4.3e-4z" fill="#fff" style="paint-order:stroke markers fill"/>
<path d="m9.6095 221.75v-0.0434l-0.14469-1.3e-4 -1.515 1.002 0.22191-3e-3z" fill="#f00" style="paint-order:stroke markers fill"/>
<path d="m9.6095 221.71-0.29478-3.6e-4 -1.4848 0.99829 0.26872-1e-5z" fill="#fff" style="paint-order:stroke markers fill"/>
<path d="m9.6124 221.95 0.00134-0.24429-1.5151 0.99791 0.38113 4.3e-4z" fill="#fff" style="paint-order:stroke markers fill"/>
<path d="m9.6095 221.75v-0.0434l-0.14469-1.3e-4 -1.515 1.002 0.22191-3e-3z" fill="#f00" style="paint-order:stroke markers fill"/>
<g transform="rotate(180,7.3486,223.23)">
<path d="m9.6095 221.71-0.29478-3.6e-4 -1.4848 0.99829 0.26872-1e-5z" fill="#fff" style="paint-order:stroke markers fill"/>
<path d="m9.6124 221.95 0.00134-0.24429-1.5151 0.99791 0.38113 4.3e-4z" fill="#fff" style="paint-order:stroke markers fill"/>
<path d="m9.6095 221.75v-0.0434l-0.14469-1.3e-4 -1.515 1.002 0.22191-3e-3z" fill="#f00" style="paint-order:stroke markers fill"/>
<path d="m9.6095 221.71-0.29478-3.6e-4 -1.4848 0.99829 0.26872-1e-5z" fill="#fff" style="paint-order:stroke markers fill"/>
<path d="m9.6124 221.95 0.00134-0.24429-1.5151 0.99791 0.38113 4.3e-4z" fill="#fff" style="paint-order:stroke markers fill"/>
<path d="m9.6095 221.75v-0.0434l-0.14469-1.3e-4 -1.515 1.002 0.22191-3e-3z" fill="#f00" style="paint-order:stroke markers fill"/>
</g>
</g>
<rect x="89.855" y="19.83" width="4.4037" height="3.0376" fill="#04a" stroke-width="0" style="paint-order:stroke markers fill"/>
<rect x="91.315" y="19.83" width="1.4603" height="3.0372" fill="#fff" stroke-width="0" style="paint-order:stroke markers fill"/>
<rect x="92.766" y="19.83" width="1.493" height="3.0372" fill="#f00" stroke-width="0" style="paint-order:stroke markers fill"/>
<g transform="translate(0 -196.8)" stroke-width="0">
<rect x="95.198" y="212.66" width="4.3805" height="3.0376" fill="#f00" style="paint-order:stroke markers fill"/>
<rect x="95.2" y="213.38" width="4.3656" height="1.5544" fill="#ff0" style="paint-order:stroke markers fill"/>
</g>
</svg>
