<?xml version="1.0" encoding="UTF-8"?>
<svg width="400mm" height="1200mm" version="1.1" viewBox="0 0 400 1200" xmlns="http://www.w3.org/2000/svg" xmlns:cc="http://creativecommons.org/ns#" xmlns:dc="http://purl.org/dc/elements/1.1/" xmlns:osb="http://www.openswatchbook.org/uri/2009/osb" xmlns:rdf="http://www.w3.org/1999/02/22-rdf-syntax-ns#" xmlns:xlink="http://www.w3.org/1999/xlink">
<defs>
<linearGradient id="c" x1="274.86" x2="9.7459" y1="-56.786" y2="448.95" gradientTransform="matrix(.73497 0 0 2.9976 -.72972 -594.79)" gradientUnits="userSpaceOnUse">
<stop offset="0"/>
<stop stop-opacity=".663" offset="1"/>
</linearGradient>
<filter id="l" x="-.50637" y="-.16774" width="2.0127" height="1.3355" color-interpolation-filters="sRGB">
<feGaussianBlur stdDeviation="36.661112"/>
</filter>
<linearGradient id="b" x1="191.99" x2="314.43" y1="-699.6" y2="-55.501" gradientUnits="userSpaceOnUse">
<stop stop-color="#0cf" offset="0"/>
<stop stop-color="#0cf" stop-opacity="0" offset="1"/>
</linearGradient>
<filter id="k" x="-.56606" y="-.23528" width="2.1321" height="1.4706" color-interpolation-filters="sRGB">
<feGaussianBlur stdDeviation="31.211264"/>
</filter>
<linearGradient id="a" x1="165.6" x2="53.841" y1="-765.14" y2="-779.83" gradientUnits="userSpaceOnUse">
<stop stop-color="#cddc39" offset="0"/>
<stop stop-color="#cddc39" stop-opacity="0" offset="1"/>
</linearGradient>
<filter id="j" x="-.68858" y="-.35445" width="2.3772" height="1.7089" color-interpolation-filters="sRGB">
<feGaussianBlur stdDeviation="86.778733"/>
</filter>
<filter id="i" x="-.40693" y="-.35712" width="1.8139" height="1.7142" color-interpolation-filters="sRGB">
<feGaussianBlur stdDeviation="22.501535"/>
</filter>
<filter id="h" x="-1.3521" y="-.30071" width="3.7042" height="1.6014" color-interpolation-filters="sRGB">
<feGaussianBlur stdDeviation="30.225915"/>
</filter>
<clipPath id="p">
<ellipse cx="224.09" cy="-569.1" rx="57.485" ry="46.391" fill="#fff" opacity=".748" stroke-width="0" style="paint-order:stroke markers fill"/>
</clipPath>
<clipPath id="n">
<ellipse cx="224.09" cy="-569.1" rx="57.485" ry="46.391" fill="#fff" opacity=".748" stroke-width="0" style="paint-order:stroke markers fill"/>
</clipPath>
<clipPath id="m">
<ellipse cx="224.09" cy="-569.1" rx="57.485" ry="46.391" fill="#fff" opacity=".748" stroke-width="0" style="paint-order:stroke markers fill"/>
</clipPath>
<clipPath id="o">
<ellipse cx="224.09" cy="-569.1" rx="57.485" ry="46.391" fill="#fff" opacity=".748" stroke-width="0" style="paint-order:stroke markers fill"/>
</clipPath>
<filter id="g" x="-.13582" y="-.12831" width="1.2716" height="1.2566" color-interpolation-filters="sRGB">
<feGaussianBlur stdDeviation="5.4563063"/>
</filter>
<filter id="f" x="-.12346" y="-.11663" width="1.2469" height="1.2333" color-interpolation-filters="sRGB">
<feGaussianBlur stdDeviation="4.9598375"/>
</filter>
<filter id="e" x="-.049386" y="-.046653" width="1.0988" height="1.0933" color-interpolation-filters="sRGB">
<feGaussianBlur stdDeviation="1.983935"/>
</filter>
<filter id="d" x="-.037039" y="-.03499" width="1.0741" height="1.07" color-interpolation-filters="sRGB">
<feGaussianBlur stdDeviation="1.4879513"/>
</filter>
</defs>
<metadata>
<rdf:RDF>
<cc:Work rdf:about="">
<dc:format>image/svg+xml</dc:format>
<dc:type rdf:resource="http://purl.org/dc/dcmitype/StillImage"/>
<dc:title/>
</cc:Work>
</rdf:RDF>
</metadata>
<g transform="translate(0,903)" stroke-width="0">
<rect x="-.17412" y="-903.23" width="405.59" height="1201" ry="0" fill="url(#c)" style="paint-order:stroke markers fill"/>
<path d="m51.394-451.89 5.9266-141.45c31.876 148.4 246.5 525.58 296.54 587.58l-269.88-65.026z" fill="#fff" filter="url(#j)" style="paint-order:stroke markers fill"/>
<rect x="491.91" y="-819.8" width="106.05" height="123.18" opacity="0" style="paint-order:stroke markers fill"/>
<path d="m235.04-812.44 160.55-52.039-7.2612 145.17-198.06 152.08c-0.26893-16.386 2.03-177.11 44.778-245.21z" fill="#b3b3b3" filter="url(#i)" opacity=".748" style="paint-order:stroke markers fill"/>
<path d="m213.8-631.23 128.69-88.345 36.71 114.16-249.71 223.48z" fill="#cddc39" filter="url(#h)" opacity=".748" style="paint-order:stroke markers fill"/>
<path d="m22.067-802.1 194.93-68.499-87.136 79.064-103.93 245.84z" fill="url(#a)" filter="url(#k)" style="paint-order:stroke markers fill"/>
<path d="m353.23-852.43 13.052 121.55-51.858 675.38-239.58 108.33z" fill="url(#b)" filter="url(#l)" style="paint-order:stroke markers fill"/>
<g transform="matrix(.27443 0 0 .25924 305.19 -677.81)" filter="url(#f)" opacity=".198">
<rect x="175.08" y="-673.59" width="96.413" height="102.06" ry="48.207" fill="#cddc39" opacity=".748" style="paint-order:stroke markers fill"/>
<rect x="175.08" y="-673.59" width="96.413" height="102.06" ry="48.207" clip-path="url(#p)" fill="#fff" opacity=".748" style="paint-order:stroke markers fill"/>
<ellipse cx="223.28" cy="-643.94" rx="21.179" ry="21.582" fill="#fff" opacity=".748" style="paint-order:stroke markers fill"/>
</g>
<g transform="matrix(.54885 0 0 .51848 95.323 -430.31)" filter="url(#d)" opacity=".269">
<rect x="175.08" y="-673.59" width="96.413" height="102.06" ry="48.207" fill="#cddc39" opacity=".748" style="paint-order:stroke markers fill"/>
<rect x="175.08" y="-673.59" width="96.413" height="102.06" ry="48.207" clip-path="url(#n)" fill="#fff" opacity=".748" style="paint-order:stroke markers fill"/>
<ellipse cx="223.28" cy="-643.94" rx="21.179" ry="21.582" fill="#fff" opacity=".748" style="paint-order:stroke markers fill"/>
</g>
<g transform="matrix(1.0977 0 0 1.037 73.826 4.8236)" filter="url(#e)" opacity=".159">
<rect x="175.08" y="-673.59" width="96.413" height="102.06" ry="48.207" fill="#cddc39" opacity=".748" style="paint-order:stroke markers fill"/>
<rect x="175.08" y="-673.59" width="96.413" height="102.06" ry="48.207" clip-path="url(#m)" fill="#fff" opacity=".748" style="paint-order:stroke markers fill"/>
<ellipse cx="223.28" cy="-643.94" rx="21.179" ry="21.582" fill="#fff" opacity=".748" style="paint-order:stroke markers fill"/>
</g>
<g transform="matrix(.16602 0 0 .15271 273.27 -779.98)" filter="url(#g)" opacity=".198">
<rect x="175.08" y="-673.59" width="96.413" height="102.06" ry="48.207" fill="#cddc39" opacity=".748" style="paint-order:stroke markers fill"/>
<rect x="175.08" y="-673.59" width="96.413" height="102.06" ry="48.207" clip-path="url(#o)" fill="#fff" opacity=".748" style="paint-order:stroke markers fill"/>
<ellipse cx="223.28" cy="-643.94" rx="21.179" ry="21.582" fill="#fff" opacity=".748" style="paint-order:stroke markers fill"/>
</g>
</g>
</svg>
