<?xml version="1.0" encoding="UTF-8"?>
<svg width="300" height="300" version="1.1" viewBox="0 0 79.375 79.375" xmlns="http://www.w3.org/2000/svg" xmlns:cc="http://creativecommons.org/ns#" xmlns:dc="http://purl.org/dc/elements/1.1/" xmlns:rdf="http://www.w3.org/1999/02/22-rdf-syntax-ns#">
<metadata>
<rdf:RDF>
<cc:Work rdf:about="">
<dc:format>image/svg+xml</dc:format>
<dc:type rdf:resource="http://purl.org/dc/dcmitype/StillImage"/>
<dc:title/>
</cc:Work>
</rdf:RDF>
</metadata>
<g transform="translate(0 -217.62)" stroke-width="0">
<path d="m53.329 229.06-6.6991 0.92895c-3.7536 6.8437-11.776 11.629-16.068 16.265 0.19056-5.9772-2.1796-13.904-8.5377-16.41l-3.9323 0.33408c4.0114 12.662 0.89852 25.926-1.4032 38.588l12.017-0.60136c0.0855-6.7803 1.8311-13.481 1.8523-19.747 4.8528 4.8384 8.6155 11.018 10.201 19.878l12.581 1.6036c-3.0802-7.3522-5.0328-16.181-10.302-22.523 5.9931-4.5694 7.3611-12.231 10.29-18.316z" fill="#333" stroke-miterlimit="0" style="paint-order:stroke fill markers"/>
<circle cx="61.123" cy="238.23" r="7.6729" fill="#cddc39" opacity=".97" stroke-miterlimit="0" style="paint-order:stroke fill markers"/>
<circle cx="61.201" cy="260.33" r="7.6729" fill="#cddc39" opacity=".97" stroke-miterlimit="0" style="paint-order:stroke fill markers"/>
<path d="m44.66 276.67c-1.0319 0-1.8627 0.83075-1.8627 1.8627 0 1.0319 0.83075 1.8627 1.8627 1.8627 1.0319 0 1.8627-0.83075 1.8627-1.8627 0-1.0319-0.83075-1.8627-1.8627-1.8627zm5.9267 0.0149c-1.0319 0-1.8627 0.83075-1.8627 1.8627s0.83075 1.8627 1.8627 1.8627 1.8627-0.83076 1.8627-1.8627-0.83075-1.8627-1.8627-1.8627zm-41.502 0.71666v13.554h3.6288v-13.554zm45.519 0.0264v13.554h3.6288v-13.554zm-20.089 4e-3 -3.6893 3.5e-4v7.7586a5.201 5.1707 0 0 0 1.5415 4.5012 5.201 5.1707 0 0 0 7.2582-0.0582 5.201 5.1707 0 0 0 0.13163-7.2149 5.201 5.1707 0 0 0-3.7042-1.6295 5.201 5.1707 0 0 0-0.23217 2e-3 5.201 5.1707 0 0 0-0.65584 0.0648v3.9304a1.4393 1.4393 0 0 1 0.76398-0.24738 1.4393 1.4393 0 0 1 1.0894 0.45343 1.4393 1.4393 0 0 1-0.03638 2.0082 1.4393 1.4393 0 0 1-2.0085 0.0162 1.4393 1.4393 0 0 1-0.43722-1.1632h-0.02117v-4.8528zm37.949 3.345c-1.9899 0.0245-4.582-0.24398-5.2232 3.5606-0.27929 1.9117-0.38681 2.782-1.9063 2.7255l-0.01058 3.9291c2.4226 0.16001 5.322-0.70378 5.7157-4.1857 0.16431-1.4534 0.73119-1.9282 1.4354-1.94zm-29.611 0.34429v9.8577h3.6135v-9.8579zm-22.696 0.011v6.3077c0.41684 2.098 1.4027 3.7328 4.2548 3.8487 2.0481-0.13743 3.7389-0.98904 4.4258-3.8487v-6.3077h-3.592v6.3077h-0.19248c-0.45043 0.23613-0.76701 0.15982-1.0478 0h-0.25631v-6.3077zm28.622 4e-3v9.8577h3.6135v-9.8577zm-34.117 0.0245-1.8782 3.35 2.5195 6.4357h3.9803l-2.6743-6.2415 1.8405-3.5299zm45.519 0.0264-1.8782 3.35 2.5195 6.4357h3.9803l-2.6743-6.2415 1.8405-3.5299z" fill="#808080" style="paint-order:stroke markers fill"/>
<path d="m43.415 277.14a1.871 1.867 0 0 1 2.6085 0.11542 1.871 1.867 0 0 1-0.04733 2.605 1.871 1.867 0 0 1-2.611 0.021 1.871 1.867 0 0 1-0.08939-2.604" fill="#333" style="paint-order:stroke markers fill"/>
<path d="m49.333 277.14a1.871 1.867 0 0 1 2.6085 0.11541 1.871 1.867 0 0 1-0.04733 2.6051 1.871 1.867 0 0 1-2.611 0.021 1.871 1.867 0 0 1-0.08939-2.604" fill="#333" style="paint-order:stroke markers fill"/>
<rect x="42.853" y="281.12" width="3.6135" height="9.8577" ry="0" fill="#333" style="paint-order:stroke markers fill"/>
<rect x="48.78" y="281.14" width="3.6135" height="9.8577" ry="0" fill="#333" style="paint-order:stroke markers fill"/>
</g>
</svg>
