<?xml version="1.0" encoding="UTF-8"?>
<svg width="800" height="300" version="1.1" viewBox="0 0 211.67 79.375" xmlns="http://www.w3.org/2000/svg" xmlns:cc="http://creativecommons.org/ns#" xmlns:dc="http://purl.org/dc/elements/1.1/" xmlns:osb="http://www.openswatchbook.org/uri/2009/osb" xmlns:rdf="http://www.w3.org/1999/02/22-rdf-syntax-ns#">
<metadata>
<rdf:RDF>
<cc:Work rdf:about="">
<dc:format>image/svg+xml</dc:format>
<dc:type rdf:resource="http://purl.org/dc/dcmitype/StillImage"/>
<dc:title/>
</cc:Work>
</rdf:RDF>
</metadata>
<g transform="translate(0 -217.62)" fill="#cddc23">
<g transform="matrix(1.4927 -.79968 .79968 1.4927 -249.01 -92.731)" opacity=".495">
<g transform="matrix(.07276 0 0 .07276 34.479 242.65)">
<g fill="#cddc23">
<path d="m0 86.337v339.32h512v-339.32zm451.47 30.418-195.47 147.83-195.47-147.83zm-421.05 15.361 163.8 123.88-163.8 123.88zm30.113 263.13 158.9-120.18 36.57 27.657 36.57-27.657 158.9 120.18zm421.05-15.361-163.8-123.88 163.8-123.88z" fill="#cddc23"/>
</g>
</g>
<text x="35.555416" y="278.44281" font-family="sans-serif" font-size="5.2917px" letter-spacing="0px" stroke-width=".13229" word-spacing="0px" style="line-height:1.25" xml:space="preserve"><tspan x="35.555416" y="278.44281" fill="#cddc23" stroke-width=".13229">NEWSLETTER</tspan></text>
</g>
<path d="m77.973 252.86c16.064-2.2976 36.088-33.86 56.748-20.456 22.374 16.061 42.069 23.489 59.972 11.054l-2.8348 5.8586c-10.48 14.372-22.629 33.325-48.69 3.6687-18.859-26.774-49.306 1.4127-65.195-0.12537z" opacity=".495" stroke-width="0" style="paint-order:stroke markers fill"/>
</g>
</svg>
