<?xml version="1.0" encoding="UTF-8" standalone="no"?>
<svg
   xmlns:dc="http://purl.org/dc/elements/1.1/"
   xmlns:cc="http://creativecommons.org/ns#"
   xmlns:rdf="http://www.w3.org/1999/02/22-rdf-syntax-ns#"
   xmlns:svg="http://www.w3.org/2000/svg"
   xmlns="http://www.w3.org/2000/svg"
   xmlns:sodipodi="http://sodipodi.sourceforge.net/DTD/sodipodi-0.dtd"
   xmlns:inkscape="http://www.inkscape.org/namespaces/inkscape"
   version="1.1"
   id="svg827"
   sodipodi:docname="offline.svg"
   inkscape:version="0.92.4 (5da689c313, 2019-01-14)"
   width="80"
   height="80">
   <style>
    #globe {
        animation: 2s globe ease-in-out forwards;
    }
    @keyframes globe {
    	0%   { opacity:1; }
    	100% { opacity:0.5; }
    }
    #plug {
      animation: 2s unplug ease-in-out forwards;
    }
    @keyframes unplug {
    	0%   { transform:translateX(-24px) translateY(10px); }
    	100% { transform:translateX(-15px) translateY(10px); }
    }
    #wave {
      animation: 2s wavesA ease-in-out forwards;
    }
    @keyframes wavesA {
    	0%   { opacity:0; }
    	10% { opacity:1; }
    	20%   { opacity:0; }
    	30% { opacity:1; }
    	40%   { opacity:0; }
    	50% { opacity:1; }
    	100% { opacity:0; }
    }
  </style>

  <metadata
     id="metadata833">
    <rdf:RDF>
      <cc:Work
         rdf:about="">
        <dc:format>image/svg+xml</dc:format>
        <dc:type
           rdf:resource="http://purl.org/dc/dcmitype/StillImage" />
        <dc:title></dc:title>
      </cc:Work>
    </rdf:RDF>
  </metadata>

  <defs
     id="defs831" />
  <sodipodi:namedview
     pagecolor="#ffffff"
     bordercolor="#666666"
     borderopacity="1"
     objecttolerance="10"
     gridtolerance="10"
     guidetolerance="10"
     inkscape:pageopacity="0"
     inkscape:pageshadow="2"
     inkscape:window-width="2100"
     inkscape:window-height="1234"
     id="namedview829"
     showgrid="false"
     inkscape:zoom="4.04"
     inkscape:cx="76.985759"
     inkscape:cy="81.504758"
     inkscape:window-x="2391"
     inkscape:window-y="-9"
     inkscape:window-maximized="1"
     inkscape:current-layer="svg827" />
  <g
     id="g4633"
     transform="translate(0,-20)">
    <path
       sodipodi:nodetypes="ccccc"
       inkscape:connector-curvature="0"
       id="rect4629"
       d="M 0.24752475,20.29703 C 24.718621,37.629012 45.814487,41.857157 80.814645,100.06667 v 0 H 0 Z"
       style="opacity:1;fill:#c83737;fill-opacity:1;stroke:#f2f2f2;stroke-width:3;stroke-linecap:round;stroke-miterlimit:4;stroke-dasharray:none;stroke-opacity:0;paint-order:stroke fill markers" />
  </g>
  <path
     d="m 31.132555,54.864209 c -0.0043,-0.438663 -0.02653,-0.874242 -0.06787,-1.303034 -0.13882,-1.429511 -0.480625,-2.799794 -0.992717,-4.084318 -0.03825,-0.09563 -0.07342,-0.192494 -0.11414,-0.28689 C 29.27545,47.577833 28.317284,46.11007 27.14441,44.843438 27.06729,44.760768 26.988931,44.679324 26.910575,44.599119 26.68908,44.36899 26.461416,44.144414 26.22573,43.929093 23.559153,41.50133 20.017702,40.019376 16.135678,40.019376 c -3.914722,0 -7.4814702,1.508483 -10.1554512,3.973265 -0.623147,0.574396 -1.195702,1.201234 -1.715198,1.872493 -1.95952,2.534499 -3.12931,5.709409 -3.12931,9.153933 0,8.271671 6.729375,15.000309 15.0005762,15.000309 5.818099,0 10.869295,-3.33162 13.355715,-8.185913 0.531834,-1.037737 0.945826,-2.143959 1.2247,-3.303239 0.07095,-0.294293 0.132033,-0.58982 0.185093,-0.889049 0.15116,-0.85203 0.233835,-1.728123 0.233835,-2.622108 6.17e-4,-0.05183 -0.0025,-0.103033 -0.0031,-0.154858 z m -2.82329,-5.995064 0.08699,-0.09748 c 0.114141,0.221491 0.220878,0.446684 0.32268,0.674961 l -0.141905,-0.0056 -0.267769,0.03702 z m -2.167442,-2.617173 0.0025,-0.670025 c 0.235686,0.249871 0.462733,0.507146 0.679909,0.773676 l -0.270236,0.402262 -0.944592,-0.0086 -0.05923,-0.196812 z M 8.0471038,44.586779 v -0.02529 h 0.300468 l 0.02591,-0.103034 h 0.491731 v 0.214705 l -0.141287,0.188792 h -0.677439 z m 0.480009,0.669409 c 0,0 0.300468,-0.05121 0.326381,-0.05121 0.02591,0 0,0.299846 0,0.299846 l -0.677442,0.04257 -0.128948,-0.154241 z m 20.7378512,5.954345 h -1.097603 l -0.668804,-0.497892 -0.703972,0.06848 v 0.429409 h -0.222728 l -0.240622,-0.171517 -1.219147,-0.3091 v -0.789717 l -1.544912,0.120308 -0.478775,0.257275 h -0.613276 l -0.300468,-0.03023 -0.744692,0.413367 v 0.777995 l -1.522084,1.098201 0.126481,0.468894 h 0.308489 l -0.08082,0.446684 -0.217176,0.07959 -0.01172,1.167301 1.315396,1.497994 h 0.572555 l 0.03455,-0.09131 h 1.029119 l 0.296766,-0.27455 h 0.583661 l 0.320211,0.320823 0.869939,0.09008 -0.115375,1.156812 0.96557,1.704679 -0.50839,0.971722 0.03455,0.45779 0.400418,0.399177 v 1.100668 l 0.525665,0.707044 v 0.914345 h 0.454096 C 24.284726,66.79758 20.438487,68.784829 16.135068,68.784829 8.5450098,68.785446 2.3696808,62.60961 2.3696808,55.01907 c 0,-1.910745 0.392398,-3.73203 1.098837,-5.387352 V 49.20231 l 0.492348,-0.597841 c 0.170903,-0.322674 0.354146,-0.637327 0.549727,-0.943959 l 0.02221,0.249871 -0.571322,0.694088 c -0.177072,0.334396 -0.342422,0.676195 -0.492348,1.027249 v 0.783548 l 0.571939,0.275167 v 1.088946 l 0.548493,0.935938 0.446074,0.06848 0.05738,-0.320823 -0.526282,-0.811928 -0.103035,-0.7891 h 0.308489 l 0.130182,0.811928 0.760734,1.109923 -0.196199,0.358457 0.48371,0.739743 1.201256,0.297378 V 53.98503 l 0.480625,0.06848 -0.04566,0.343033 0.37759,0.0691 0.583044,0.159178 0.823665,0.938406 1.0519472,0.07959 0.103035,0.8582 -0.7200132,0.503445 -0.03393,0.766272 -0.103035,0.468895 1.0414582,1.30365 0.07959,0.446684 c 0,0 0.37759,0.102417 0.423863,0.102417 0.04566,0 0.846493,0.606478 0.846493,0.606478 v 2.356195 l 0.285661,0.08021 -0.194348,1.087095 0.480626,0.641028 -0.08885,1.077224 0.63487,1.116092 0.815027,0.71198 0.819346,0.01481 0.08021,-0.263445 -0.602171,-0.507146 0.03455,-0.251723 0.107971,-0.308483 0.02283,-0.314653 -0.407205,-0.01234 -0.205453,-0.257892 0.338103,-0.325142 0.04566,-0.245552 -0.377591,-0.107969 0.02221,-0.228278 0.538004,-0.08144 0.818112,-0.393007 0.274555,-0.503445 0.858216,-1.098201 -0.194965,-0.858817 0.26345,-0.457172 0.789114,0.02406 0.531218,-0.420771 0.17152,-1.657172 0.589213,-0.748381 0.103035,-0.480616 -0.537387,-0.172134 -0.354762,-0.5818 -1.212361,-0.01234 -0.961251,-0.366478 -0.04566,-0.68545 -0.320828,-0.560823 -0.869321,-0.01296 -0.50222,-0.788483 -0.446075,-0.217789 -0.02283,0.240617 -0.811943,0.04812 -0.297383,-0.413985 -0.84711,-0.172133 -0.697802,0.806375 -1.0982202,-0.186324 -0.07959,-1.237635 -0.801454,-0.136966 0.321445,-0.607096 -0.09193,-0.348586 -1.053181,0.703959 -0.662634,-0.08082 -0.236302,-0.517635 0.144372,-0.533676 0.365251,-0.673111 0.840941,-0.425707 1.623885,-6.17e-4 -0.0043,0.495424 0.5836612,0.271466 -0.04627,-0.846479 0.420779,-0.423239 0.848961,-0.557738 0.058,-0.39239 0.846493,-0.881029 0.900171,-0.498509 -0.07959,-0.0654 0.609573,-0.573779 0.223346,0.05923 0.102419,0.128329 0.231366,-0.256658 0.05676,-0.0253 -0.253578,-0.03578 -0.257279,-0.08576 v -0.246787 l 0.136352,-0.111671 h 0.300468 l 0.137586,0.06046 0.119077,0.240617 0.145606,-0.02221 v -0.02098 l 0.04196,0.01419 0.422012,-0.06478 0.05985,-0.206067 0.240622,0.06046 v 0.223342 l -0.223346,0.153624 h 6.17e-4 l 0.0327,0.244936 0.764436,0.235681 c 0,0 6.17e-4,0.0031 0.0019,0.0093 l 0.175838,-0.01481 0.01172,-0.331311 -0.605872,-0.275784 -0.03455,-0.159178 0.502837,-0.171517 0.02221,-0.481233 -0.525665,-0.320206 -0.03455,-0.811311 -0.72063,0.354139 h -0.262832 l 0.0691,-0.617584 -0.980995,-0.231362 -0.405971,0.306632 v 0.935321 l -0.729885,0.231363 -0.292447,0.609563 -0.317127,0.05121 v -0.779846 l -0.686079,-0.09501 -0.343039,-0.223341 -0.138203,-0.505296 1.227168,-0.718149 0.60032,-0.182622 0.06046,0.403496 0.334402,-0.01727 0.02591,-0.202982 0.349827,-0.04998 0.0062,-0.07095 -0.150542,-0.06231 -0.03455,-0.214705 0.430033,-0.0364 0.259748,-0.270231 0.01419,-0.01974 0.0031,0.0012 0.07897,-0.08144 0.903873,-0.114138 0.399801,0.339331 -1.048245,0.558355 1.333906,0.314653 0.172754,-0.446067 h 0.583043 l 0.206071,-0.388689 -0.412141,-0.103033 v -0.491723 l -1.292568,-0.572545 -0.89215,0.103034 -0.503454,0.263444 0.03455,0.640412 -0.526282,-0.08021 -0.08082,-0.354139 0.504071,-0.457789 -0.914978,-0.04565 -0.262832,0.07959 -0.114141,0.308484 0.343039,0.05799 -0.06848,0.343034 -0.583044,0.03455 -0.09131,0.228278 -0.845876,0.02344 c 0,0 -0.02345,-0.48 -0.05738,-0.48 -0.03393,0 0.663251,-0.01172 0.663251,-0.01172 l 0.504071,-0.492339 -0.275172,-0.137584 -0.365868,0.355373 -0.607106,-0.03455 -0.365868,-0.503445 H 9.8511468 l -0.811943,0.606478 h 0.744075 l 0.06787,0.217789 -0.193114,0.179538 0.8236652,0.02283 0.125863,0.297378 -0.9273172,-0.03455 -0.04504,-0.228894 -0.583043,-0.125862 -0.309106,-0.171516 -0.6941,0.0056 c 2.2723292,-1.655321 5.0666202,-2.635064 8.0867252,-2.635064 3.480988,0 6.661508,1.301183 9.088081,3.438972 l -0.1635,0.292442 -0.63487,0.248637 -0.267768,0.290592 0.0617,0.338714 0.327615,0.04566 0.197433,0.493573 0.565151,-0.22766 0.09316,0.660154 h -0.170286 l -0.463967,-0.06848 -0.514559,0.08638 -0.497901,0.703342 -0.711992,0.111671 -0.103036,0.609563 0.300468,0.07095 -0.08699,0.391774 -0.707057,-0.141903 -0.648443,0.141903 -0.137586,0.360925 0.11229,0.757635 0.380675,0.178303 0.638572,-0.0037 0.431267,-0.03887 0.131416,-0.343034 0.67374,-0.875475 0.443607,0.09069 0.43682,-0.394859 0.08144,0.308483 1.074775,0.724936 -0.131416,0.176453 -0.484328,-0.02591 0.186328,0.264062 0.298,0.0654 0.349209,-0.145604 -0.0074,-0.420771 0.154862,-0.07774 -0.12463,-0.132031 -0.716928,-0.399794 -0.188795,-0.531208 h 0.596 l 0.190647,0.188791 0.513325,0.442365 0.02159,0.53491 0.531835,0.566376 0.19805,-0.776144 0.368335,-0.201131 0.0691,0.634858 0.359698,0.394859 0.717545,-0.01234 c 0.13882,0.357223 0.263449,0.720617 0.372654,1.091413 z m -19.9475032,-4.376144 0.360315,-0.171517 0.3257642,0.07774 -0.1122902,0.437429 -0.351677,0.111671 z m 1.9120142,1.029717 v 0.283188 h -0.823049 l -0.308488,-0.08576 0.07712,-0.197429 0.395482,-0.163496 h 0.540473 v 0.163496 z m 0.378824,0.394859 v 0.27455 l -0.206071,0.132648 -0.256662,0.04751 c 0,0 0,-0.411517 0,-0.454704 z m -0.231984,-0.111671 v -0.326376 l 0.283193,0.257892 z m 0.128949,0.660154 v 0.267146 l -0.196816,0.19743 h -0.437437 l 0.06848,-0.299846 0.206688,-0.01789 0.04257,-0.103033 z m -1.089583,-0.548483 h 0.454713 l -0.583044,0.815012 -0.240622,-0.128946 0.05183,-0.343033 z m 1.862038,0.454704 v 0.26653 h -0.437437 l -0.119693,-0.172751 v -0.248021 h 0.03455 z m -0.40412,-0.366478 0.12463,-0.130797 0.210389,0.130797 -0.168435,0.138817 z m 17.614711,3.558046 0.04319,-0.05059 c 0.01789,0.07774 0.03702,0.155475 0.05429,0.234447 z"
     id="globe"
     inkscape:connector-curvature="0"
     style="stroke-width:0.61697209;fill:#ffffff" />
  <g
     id="plug"
     transform="translate(-21.572007,10.323329)"
     inkscape:label="#g4586"
     style="fill:#ffffff">
    <rect
       ry="2.107729"
       y="41.324013"
       x="53.561192"
       height="7.6333961"
       width="8.7941828"
       id="rect4557"
       style="opacity:1;fill:#ffffff;fill-opacity:1;stroke:#f2f2f2;stroke-width:0;stroke-linecap:round;stroke-miterlimit:0;stroke-dasharray:none;stroke-opacity:0;paint-order:stroke fill markers" />
    <rect
       ry="0.68358779"
       y="42.349392"
       x="50.483227"
       height="1.3671756"
       width="3.5176733"
       id="rect4559"
       style="opacity:1;fill:#ffffff;fill-opacity:1;stroke:#f2f2f2;stroke-width:0;stroke-linecap:round;stroke-miterlimit:0;stroke-dasharray:none;stroke-opacity:0;paint-order:stroke fill markers" />
    <rect
       ry="0.68358779"
       y="46.598217"
       x="50.608856"
       height="1.3671756"
       width="3.7061198"
       id="rect4561"
       style="opacity:1;fill:#ffffff;fill-opacity:1;stroke:#f2f2f2;stroke-width:0;stroke-linecap:round;stroke-miterlimit:0;stroke-dasharray:none;stroke-opacity:0;paint-order:stroke fill markers" />
    <rect
       ry="0.020139636"
       y="44.563412"
       x="62.539307"
       height="1.168143"
       width="3.9087248"
       id="rect4563"
       style="opacity:1;fill:#ffffff;fill-opacity:1;stroke:#f2f2f2;stroke-width:0;stroke-linecap:butt;stroke-miterlimit:0;stroke-dasharray:none;stroke-opacity:0;paint-order:stroke fill markers" />
    <path
       inkscape:connector-curvature="0"
       id="rect4578"
       d="m 53.382482,40.382009 h 1.311015 c 0.308332,0 0.556558,0.351278 0.556558,0.787619 v 7.753899 c 0,0.436341 -0.248226,0.787619 -0.556558,0.787619 h -1.311015 c -0.308332,0 -0.556557,-0.351278 -0.556557,-0.787619 v -7.753899 c 0,-0.436341 0.248225,-0.787619 0.556557,-0.787619 z"
       style="opacity:1;fill:#ffffff;fill-opacity:1;stroke:#f2f2f2;stroke-width:0;stroke-linecap:round;stroke-miterlimit:0;stroke-dasharray:none;stroke-opacity:0;paint-order:stroke fill markers" />
  </g>
  <g
     id="wave"
     inkscape:label="#g4627"
     transform="translate(0,30)">
    <rect
       transform="matrix(0.6375016,0.77044903,-0.76773222,0.64077081,0,0)"
       ry="1.0933563"
       y="-21.860447"
       x="18.101749"
       height="2.7046242"
       width="22.0245"
       id="rect4602"
       style="opacity:1;fill:#ffffff;fill-opacity:1;stroke:#f2f2f2;stroke-width:2.62894511;stroke-linecap:round;stroke-miterlimit:4;stroke-dasharray:none;stroke-opacity:0;paint-order:stroke fill markers" />
    <rect
       transform="matrix(0.6375016,0.77044903,-0.76773222,0.64077081,0,0)"
       ry="1.1688498"
       y="-16.687948"
       x="21.541018"
       height="2.8913717"
       width="14.558725"
       id="rect4602-7"
       style="opacity:1;fill:#ffffff;fill-opacity:1;stroke:#f2f2f2;stroke-width:2.20998168;stroke-linecap:round;stroke-miterlimit:4;stroke-dasharray:none;stroke-opacity:0;paint-order:stroke fill markers" />
  </g>
</svg>
