<?xml version="1.0" encoding="UTF-8" standalone="no"?>
<svg
   xmlns:dc="http://purl.org/dc/elements/1.1/"
   xmlns:cc="http://creativecommons.org/ns#"
   xmlns:rdf="http://www.w3.org/1999/02/22-rdf-syntax-ns#"
   xmlns:svg="http://www.w3.org/2000/svg"
   xmlns="http://www.w3.org/2000/svg"
   xmlns:sodipodi="http://sodipodi.sourceforge.net/DTD/sodipodi-0.dtd"
   xmlns:inkscape="http://www.inkscape.org/namespaces/inkscape"
   id="Layer_1"
   xml:space="preserve"
   overflow="visible"
   viewBox="0 0 178.551 223.343"
   version="1.1"
   enable-background="new 0 0 178.551 223.343"
   sodipodi:docname="dur-a-cuire.svg"
   inkscape:version="0.92.4 (5da689c313, 2019-01-14)"><metadata
   id="metadata107"><rdf:RDF><cc:Work
       rdf:about=""><dc:format>image/svg+xml</dc:format><dc:type
         rdf:resource="http://purl.org/dc/dcmitype/StillImage" /></cc:Work></rdf:RDF></metadata><defs
   id="defs105" /><sodipodi:namedview
   pagecolor="#ffffff"
   bordercolor="#666666"
   borderopacity="1"
   objecttolerance="10"
   gridtolerance="10"
   guidetolerance="10"
   inkscape:pageopacity="0"
   inkscape:pageshadow="2"
   inkscape:window-width="1920"
   inkscape:window-height="1001"
   id="namedview103"
   showgrid="false"
   inkscape:zoom="1.0566707"
   inkscape:cx="89.275497"
   inkscape:cy="111.6715"
   inkscape:window-x="-9"
   inkscape:window-y="-9"
   inkscape:window-maximized="1"
   inkscape:current-layer="Layer_1" />
        <g
   id="g100"
   style="clip-rule:evenodd;fill-rule:evenodd;fill:#ececec;fill-opacity:1">
          <path
   fill="transparent"
   d="m 53.16,7.438 c 1.098,0.32 2.012,0.822 1.594,2.657 -1.612,0.196 -1.103,-1.73 -1.594,-2.657 z"
   id="path2"
   inkscape:connector-curvature="0"
   style="fill:#ececec;fill-opacity:1" />
          <path
   fill="transparent"
   d="m 116.39,7.438 c -0.401,2.544 -1.942,0.646 -4.25,1.063 -3.81,-0.262 1.183,-0.792 2.656,-0.531 0.42,-0.281 0.86,-0.554 1.59,-0.532 z"
   id="path4"
   inkscape:connector-curvature="0"
   style="fill:#ececec;fill-opacity:1" />
          <path
   d="m 38.814,7.97 c 4.965,1.057 8.377,3.667 12.221,5.844 -0.725,2.292 -1.663,1.958 -1.595,4.25 -4.715,-0.952 -6.112,-5.222 -10.626,-6.376 -0.257,-1.208 -1.054,-2.713 0,-3.718 z"
   id="path6"
   inkscape:connector-curvature="0"
   style="fill:#ececec;fill-opacity:1" />
          <path
   fill="transparent"
   d="m 92.478,9.564 c 2.944,-1.66 8.819,-0.391 12.221,-1.594 h 5.312 c -0.396,1.198 -2.979,0.208 -4.25,0.531 -1.729,0.928 -5.372,-0.059 -6.376,1.594 -2.556,-1.079 -4.534,0.566 -6.906,-0.531 z"
   id="path8"
   inkscape:connector-curvature="0"
   style="fill:#ececec;fill-opacity:1" />
          <path
   fill="transparent"
   d="m 89.821,10.095 c -2.3,2.128 -7.021,1.835 -10.096,3.188 0.427,1.843 -0.791,2.042 -0.531,3.719 0.327,1.799 3.576,0.675 4.782,1.594 -2.812,1.098 -4.943,-0.099 -8.501,0.531 0.571,-1.376 1.921,-1.975 2.125,-3.719 -2.453,-0.327 -3.897,-0.841 -7.438,-1.062 4.823,-3.147 12.632,-3.307 19.659,-4.251 z"
   id="path10"
   inkscape:connector-curvature="0"
   style="fill:#ececec;fill-opacity:1" />
          <path
   fill="transparent"
   d="m 110.54,11.158 c 0.165,-0.721 1.331,-0.44 2.126,-0.531 -0.17,0.721 -1.33,0.44 -2.13,0.531 z"
   id="path12"
   inkscape:connector-curvature="0"
   style="fill:#ececec;fill-opacity:1" />
          <path
   d="m 52.098,19.127 c -3.154,3.688 -10.422,4.045 -15.408,6.376 -2.501,1.169 -4.208,4.015 -6.907,2.657 2.992,-7.119 13.762,-9.237 22.315,-9.033 z"
   id="path14"
   inkscape:connector-curvature="0"
   style="fill:#ececec;fill-opacity:1" />
          <path
   fill="transparent"
   d="m 65.381,31.879 h 1.594 c -0.205,3.108 4.739,4.059 2.125,6.375 -1.752,-1.436 -3.835,-2.541 -5.845,-3.719 0.358,-1.235 2.788,-0.399 2.126,-2.656 z"
   id="path16"
   inkscape:connector-curvature="0"
   style="fill:#ececec;fill-opacity:1" />
          <path
   fill="transparent"
   d="m 107.35,32.411 c 4.606,0.357 10.762,3.758 12.752,8.501 -3.84,-3.242 -8.59,-5.571 -12.75,-8.501 z"
   id="path18"
   inkscape:connector-curvature="0"
   style="fill:#ececec;fill-opacity:1" />
          <path
   fill="transparent"
   d="m 79.726,35.599 c 0.941,-1.744 2.153,0.62 2.657,1.062 -0.858,1.66 -1.683,-1.09 -2.657,-1.062 z"
   id="path20"
   inkscape:connector-curvature="0"
   style="fill:#ececec;fill-opacity:1" />
          <path
   fill="transparent"
   d="m 88.228,40.38 c -0.211,-1.031 2.42,-0.776 1.594,0.531 H 88.76 c 0.096,-0.451 -0.209,-0.5 -0.532,-0.531 z"
   id="path22"
   inkscape:connector-curvature="0"
   style="fill:#ececec;fill-opacity:1" />
          <path
   fill="transparent"
   d="m 165.27,51.007 c 0.443,-0.918 3.264,0.236 4.25,0.531 -0.91,1.763 -3.43,0.695 -4.25,-0.531 z"
   id="path24"
   inkscape:connector-curvature="0"
   style="fill:#ececec;fill-opacity:1" />
          <path
   fill="transparent"
   d="m 138.7,53.663 c 1.134,-0.248 1.012,0.759 1.062,1.594 -0.43,-0.101 -0.529,-0.533 -1.062,-0.531 z"
   id="path26"
   inkscape:connector-curvature="0"
   style="fill:#ececec;fill-opacity:1" />
          <path
   d="M 101.51,65.352 C 99.727,68.466 92.445,69.16 87.164,69.071 85.747,69.048 84.93,68.176 83.445,68.009 78.272,67.426 72.098,69.042 68.568,65.884 V 64.29 c 1.261,-1.778 2.935,0.672 4.251,1.062 3.994,1.186 7.759,-0.219 12.751,0 1.329,0.059 2.443,0.882 3.72,1.063 4.609,0.651 8.483,-1.775 12.22,-1.063 z"
   id="path28"
   inkscape:connector-curvature="0"
   style="fill:#ececec;fill-opacity:1" />
          <path
   d="m 120.11,74.916 c -4.824,0.347 -12.669,-1.49 -17.002,1.594 -7.279,-1.529 -15.37,2.066 -22.848,1.063 -4.226,-0.567 -8.087,-3.696 -11.688,-1.063 -4.071,-1.419 -9.504,-1.477 -13.814,-2.656 1.157,-3.668 5.216,-1.305 7.97,-1.063 2.795,0.246 6.085,-0.312 9.032,0 8.229,0.872 17.517,2.237 25.504,1.594 1.985,-0.16 4.353,-0.74 5.845,-2.125 7.19,0.689 14.19,-3.31 17,2.656 z"
   id="path30"
   inkscape:connector-curvature="0"
   style="fill:#ececec;fill-opacity:1" />
          <path
   d="m 141.89,83.417 c -1.909,0.887 -3.79,-0.584 -4.251,-2.657 -3.415,-0.304 -4.66,-2.778 -7.97,-3.188 -5.694,4.578 -14.57,5.974 -19.128,11.689 -7.974,3.62 -13.787,-3.118 -20.189,-2.657 2.236,-4.377 7.48,0.134 11.157,0.531 4.699,0.507 7.976,-0.578 10.096,-4.25 4.271,0.124 7.577,-4.805 11.688,-6.376 7.56,-2.887 15.34,0.594 18.59,6.908 z"
   id="path32"
   inkscape:connector-curvature="0"
   style="fill:#ececec;fill-opacity:1" />
          <path
   d="m 68.568,84.479 c 1.877,-3.436 9.177,-1.449 11.157,-4.782 5.686,0.513 13.539,-1.141 17.534,1.062 1.966,-0.566 3.55,-2.334 5.845,-1.062 -5.111,6.215 -19.762,-1.665 -24.441,5.313 -2.065,1.305 -5.698,-0.246 -9.032,0 -2.029,0.149 -4.563,1.518 -7.438,0 -3.146,-1.662 -9.902,-4.862 -15.408,-4.251 -4.409,0.49 -7.891,3.68 -12.751,3.188 0.2,-2.457 3.381,-1.932 3.719,-4.25 5.199,-0.35 8.474,-3.141 13.283,-2.656 3.047,0.307 6.077,2.421 9.032,3.719 3.09,1.356 6.134,2.095 8.504,3.719 z"
   id="path34"
   inkscape:connector-curvature="0"
   style="fill:#ececec;fill-opacity:1" />
          <path
   d="m 89.29,86.605 c 0.234,2.36 -1.358,2.892 -3.72,2.657 -0.688,-2.738 1.993,-3.995 3.72,-2.657 z"
   id="path36"
   inkscape:connector-curvature="0"
   style="fill:#ececec;fill-opacity:1" />
          <path
   d="m 137.11,91.387 c 1.321,-0.058 1.645,-0.996 2.656,0 -0.273,2.926 2.585,7.223 -1.062,7.438 -2.336,-1.914 -2.871,-5.63 -4.781,-7.97 -1.104,0.136 -0.146,2.334 -1.063,2.657 -3.729,0.187 -4.273,-2.811 -7.438,-3.188 v -2.657 c 5.67,-0.461 10.93,-2.627 11.68,3.72 z"
   id="path38"
   inkscape:connector-curvature="0"
   style="fill:#ececec;fill-opacity:1" />
          <path
   d="m 47.315,87.136 c 2.646,-0.597 3.309,2.679 2.125,4.25 -1.501,0.439 -1.376,-0.749 -2.656,-0.531 -0.622,-1.5 -0.105,-2.256 0.531,-3.719 z"
   id="path40"
   inkscape:connector-curvature="0"
   style="fill:#ececec;fill-opacity:1" />
          <path
   d="m 41.471,88.73 c -1.795,2.249 0.169,3.559 2.125,4.782 -1.061,1.92 -2.9,5.399 -5.845,3.719 -1.347,2.549 -3.318,4.475 -5.845,5.844 -2.119,-1.679 -0.672,-5.423 1.594,-5.844 0.26,-1.677 -0.958,-1.876 -0.531,-3.719 3.46,-0.703 4.025,-6.847 8.502,-4.787 z"
   id="path42"
   inkscape:connector-curvature="0"
   style="fill:#ececec;fill-opacity:1" />
          <path
   d="m 94.603,89.793 c 2.338,3.076 3.268,11.257 -3.188,8.501 1.801,-2.784 -0.303,-3.729 0,-7.438 1.508,0.09 1.037,-1.797 3.188,-1.063 z"
   id="path44"
   inkscape:connector-curvature="0"
   style="fill:#ececec;fill-opacity:1" />
          <path
   d="m 89.29,94.575 c 0.176,1.947 -0.59,2.952 -1.062,4.25 2.758,1.605 4.76,7.65 0,8.501 -1.126,-3.125 -4.292,-4.209 -5.845,-6.907 1.783,-2.468 2.94,-5.561 6.907,-5.845 z"
   id="path46"
   inkscape:connector-curvature="0"
   style="fill:#ececec;fill-opacity:1" />
          <path
   fill="transparent"
   d="m 16.499,110.51 c -2.26,2.875 -7.992,2.28 -10.626,4.782 0.477,2.425 -0.885,3.012 -1.063,4.782 -5.404,-5.232 3.096,-10.669 7.438,-12.752 2.425,0.06 2.168,2.8 4.251,3.19 z"
   id="path48"
   inkscape:connector-curvature="0"
   style="fill:#ececec;fill-opacity:1" />
          <path
   fill="transparent"
   d="m 131.26,114.76 c -3.646,-0.726 -11.524,-3.645 -15.408,-4.25 3.04,-4.05 12.17,2.23 15.41,4.25 z"
   id="path50"
   inkscape:connector-curvature="0"
   style="fill:#ececec;fill-opacity:1" />
          <path
   fill="transparent"
   d="m 165.8,111.04 c -0.03,2.979 2.827,4.948 3.188,7.97 0.385,3.226 -1.934,6.733 -3.188,11.158 -0.442,1.559 -0.013,3.506 -0.531,4.782 -1.431,3.516 -4.672,6.842 -6.376,8.501 -0.532,2.125 -1.185,4.129 -2.126,5.844 -0.164,1.936 0.085,3.458 0.532,4.782 -1.6,0.525 -2.371,1.88 -4.782,1.594 -0.365,-4.616 0.52,-7.981 0.531,-12.22 6.338,-1.456 9.012,-6.574 11.157,-12.22 -1.088,-2.809 -3.569,-4.223 -5.844,-5.845 0.566,-2.798 2.321,-4.408 4.781,-5.313 1.936,1.076 1.082,4.939 1.595,7.438 6.005,-3.703 0.248,-14.705 -7.971,-10.626 1.65,-3.3 3.17,-6.74 9.03,-5.84 z"
   id="path52"
   inkscape:connector-curvature="0"
   style="fill:#ececec;fill-opacity:1" />
          <path
   fill="transparent"
   d="m 155.7,113.17 c -1.71,1.63 -3.97,-0.63 0,0 z"
   id="path54"
   inkscape:connector-curvature="0"
   style="fill:#ececec;fill-opacity:1" />
          <path
   fill="transparent"
   d="m 48.378,113.7 c 1.946,0.557 -0.125,6.363 4.782,5.313 -2.109,3.283 -10.014,2.493 -11.689,-0.531 0.882,-3.01 5.28,-2.51 6.907,-4.78 z"
   id="path56"
   inkscape:connector-curvature="0"
   style="fill:#ececec;fill-opacity:1" />
          <path
   fill="transparent"
   d="m 114.79,113.7 c 2.312,0.345 4.001,1.312 6.376,1.594 -3.229,3.789 2.099,5.753 4.781,6.907 -1.749,1.907 -4.865,-0.59 -5.844,1.594 -2.951,-1.299 -4.646,-3.854 -8.501,-4.251 1.33,-1.67 2.55,-3.46 3.18,-5.84 z"
   id="path58"
   inkscape:connector-curvature="0"
   style="fill:#ececec;fill-opacity:1" />
          <path
   fill="transparent"
   d="m 9.061,117.42 c 2.518,1.215 3.404,5.021 7.438,3.188 -0.204,1.798 2.352,0.836 1.594,3.188 -2.356,0.065 -5.393,0.434 -6.907,2.656 -2.924,-0.96 -2.945,-5.9 -2.125,-9.04 z"
   id="path60"
   inkscape:connector-curvature="0"
   style="fill:#ececec;fill-opacity:1" />
          <path
   fill="transparent"
   d="m 151.45,117.42 c -1.368,2.174 -2.245,4.839 -4.782,5.845 -0.086,1.64 1.256,3.003 0,4.25 -1.136,-1.698 -2.712,-2.955 -4.781,-3.719 0.802,-2.335 3.303,0.188 4.781,-1.063 0.183,-1.954 -1.936,-1.606 -3.188,-2.125 -0.157,-1.397 2.062,-0.418 1.594,-2.125 2.6,2.53 4.23,-0.23 6.38,-1.06 z"
   id="path62"
   inkscape:connector-curvature="0"
   style="fill:#ececec;fill-opacity:1" />
          <path
   fill="transparent"
   d="m 123.29,124.33 c 1.465,0.66 2.496,1.754 4.251,2.125 -1.319,0.283 -2.164,0.503 -4.251,1.063 0.499,-2.448 -2.877,-1.019 -3.719,-2.125 0.34,-1.27 3.27,0.07 3.72,-1.07 z"
   id="path64"
   inkscape:connector-curvature="0"
   style="fill:#ececec;fill-opacity:1" />
          <path
   fill="transparent"
   d="m 144.02,127.52 v 2.125 c -2.1,0.37 -1.74,-2.24 0,-2.12 z"
   id="path66"
   inkscape:connector-curvature="0"
   style="fill:#ececec;fill-opacity:1" />
          <path
   d="m 105.23,134.96 c -1.351,2.723 -5.203,2.943 -5.845,6.375 h -2.656 c -0.581,-2.823 -1.823,-7.144 0.531,-8.501 -0.473,-1.122 -1.618,-1.57 -1.595,-3.188 4.495,-1.57 6.995,3.2 9.565,5.31 z"
   id="path68"
   inkscape:connector-curvature="0"
   style="fill:#ececec;fill-opacity:1" />
          <path
   d="m 80.789,132.83 c -0.142,3.732 -1.841,4.373 -1.595,7.438 -2.987,-0.731 -4.864,-2.574 -7.97,-3.188 0.02,-5.65 6.511,-8.95 9.565,-4.25 z"
   id="path70"
   inkscape:connector-curvature="0"
   style="fill:#ececec;fill-opacity:1" />
          <path
   fill="transparent"
   d="m 155.7,130.7 h 1.595 c -0.138,4.468 -2.653,6.557 -3.188,10.626 -3.54,-3.68 3.42,-5.21 1.59,-10.63 z"
   id="path72"
   inkscape:connector-curvature="0"
   style="fill:#ececec;fill-opacity:1" />
          <path
   fill="transparent"
   d="m 137.64,131.77 c 2.34,-0.037 2.114,2.49 4.251,2.656 -0.793,2.371 -2.832,0.14 -3.188,-1.062 -0.941,-0.121 -2.66,0.536 -2.125,-1.062 0.61,0.07 0.94,-0.13 1.06,-0.54 z"
   id="path74"
   inkscape:connector-curvature="0"
   style="fill:#ececec;fill-opacity:1" />
          <path
   d="m 130.2,143.99 c 3.571,-0.591 3.644,4.656 2.656,6.907 -2.89,-0.1 -3.52,-4.79 -2.66,-6.91 z"
   id="path76"
   inkscape:connector-curvature="0"
   style="fill:#ececec;fill-opacity:1" />
          <path
   fill="transparent"
   d="m 122.23,181.71 c -2.57,-0.263 -2.169,-3.498 -3.188,-5.312 -1.764,-0.17 -3.269,-0.081 -3.72,1.062 -1.598,-0.639 -5.729,-3.636 -6.907,-7.438 -0.679,-2.188 -1.378,-7.34 -1.062,-8.501 0.402,-1.482 2.333,-3.481 4.251,-3.188 3.59,2.608 5.63,6.768 7.97,10.627 -1.28,6.24 4.28,7.88 2.66,12.75 z"
   id="path78"
   inkscape:connector-curvature="0"
   style="fill:#ececec;fill-opacity:1" />
          <path
   d="m 104.17,186.49 c -7.106,-2.008 -13.619,-4.523 -20.722,-2.656 -1.584,0.416 -2.51,1.816 -4.251,2.656 -1.587,0.766 -3.846,0.886 -5.312,1.594 -1.609,0.776 -2.879,2.673 -4.782,2.657 -9.669,-13.551 25.264,-16.096 32.41,-10.627 1.61,1.24 2.96,4.02 2.66,6.38 z"
   id="path80"
   inkscape:connector-curvature="0"
   style="fill:#ececec;fill-opacity:1" />
          <path
   fill="transparent"
   d="m 122.23,182.77 c 0.033,-0.038 -0.037,-0.525 0,-0.532 2.55,-0.45 -2.52,3.42 0,0.53 z"
   id="path82"
   inkscape:connector-curvature="0"
   style="fill:#ececec;fill-opacity:1" />
          <path
   fill="transparent"
   d="m 96.197,15.94 c 2.249,-2.139 7.82,-0.126 8.501,2.656 -2.35,-1.367 -5.332,-2.109 -8.503,-2.656 z"
   id="path84"
   inkscape:connector-curvature="0"
   style="fill:#ececec;fill-opacity:1" />
          <path
   fill="transparent"
   d="m 90.884,18.065 c -4.257,0.935 -5.332,-2.336 0,0 z"
   id="path86"
   inkscape:connector-curvature="0"
   style="fill:#ececec;fill-opacity:1" />
          <path
   fill="transparent"
   d="m 96.197,21.784 c -1.609,0.623 -2.848,1.612 -4.782,0.531 0.472,-0.945 1.483,-1.35 1.062,-3.188 11.353,2.994 20.135,8.556 30.285,12.752 -0.501,2.449 0.391,3.505 2.125,3.719 -3.088,0.952 -4.97,-3.877 -10.095,-2.657 -4.79,-5.954 -13.28,-6.781 -18.583,-11.157 z"
   id="path88"
   inkscape:connector-curvature="0"
   style="fill:#ececec;fill-opacity:1" />
          <path
   fill="transparent"
   d="m 157.3,110.51 c -2.034,-1.727 2.447,-1.413 3.188,-2.125 1.3,1 -3,0.88 -3.19,2.13 z"
   id="path90"
   inkscape:connector-curvature="0"
   style="fill:#ececec;fill-opacity:1" />
          <path
   d="m 157.83,45.693 c -0.496,1.58 5.896,4.665 7.97,2.125 2.756,1.181 3.401,1.882 6.375,2.125 3.123,6.221 -4.834,5.728 -7.438,7.97 4.447,2.637 12.31,1.858 13.813,7.438 -2.492,1.539 -4.2,-1.643 -6.907,-1.594 -1.314,0.457 0.156,3.698 -1.062,4.25 0.055,1.363 1.98,0.854 2.657,1.594 0.076,1.67 -1.363,1.825 -2.657,2.125 0.58,0.194 2.223,2.326 0,2.125 -0.262,1.679 2.637,0.197 2.125,2.125 0.041,1.812 -1.968,1.574 -3.719,1.594 -0.832,2.803 -0.372,3.596 -1.594,5.844 -1.322,0.082 -1.645,-0.834 -2.656,-1.062 0.456,3.291 -2.275,3.393 -3.188,5.313 1.488,-0.515 7.679,0.373 10.095,2.125 -1.271,2.926 -6.563,-1.332 -7.97,1.594 2.801,1.357 5.742,0.748 6.907,3.719 0.654,1.667 -1.903,2.358 0,4.25 -1.679,0.479 -2.332,1.602 -4.25,0.531 0.769,0.826 0.708,2.479 1.594,3.188 -0.35,0.713 -1.136,0.99 -2.125,1.062 0.934,6.498 7.126,9.136 7.438,15.94 0.149,3.257 -1.416,8.323 -2.657,11.689 -0.044,0.119 -1.014,-0.12 -1.062,0 -2.086,5.096 -3.958,11.128 -7.438,14.346 0.036,2.691 -0.913,4.399 -0.531,7.438 -2.549,1.878 -4.105,4.75 -7.97,5.312 1.13,4.975 -0.754,9.477 1.594,13.814 -0.935,3.67 -2.809,6.4 -2.656,11.158 -1.059,0.535 -1.86,1.327 -2.656,2.125 -0.933,4.443 -5.197,9.506 -7.438,14.346 -3.29,0.784 -4.606,3.541 -5.845,6.376 -2.03,0.98 -4.868,1.153 -7.438,1.594 -3.319,5.891 -10.282,8.137 -15.408,12.22 h -4.782 c -1.423,0.349 -2.02,1.522 -3.188,2.126 -18.081,0.955 -43.979,3.245 -50.476,-11.689 -4.298,-0.66 -6.427,-3.491 -9.563,-5.313 -5.235,0.454 -7.194,-2.369 -11.158,-3.188 -1.052,-3.789 -6.133,-6.132 -8.501,-10.095 -0.222,-0.371 0.258,-1.251 0,-1.594 -0.667,-0.887 -2.089,-1.139 -2.657,-2.126 -0.501,-0.872 -0.098,-2.133 -0.531,-3.188 -1.571,-3.824 -4.662,-7.823 -4.782,-11.158 -0.167,-4.633 2.882,-9.068 2.125,-14.345 -3.366,-0.708 -5.2,-2.947 -9.563,-2.657 -1.953,-1.863 -3.879,-7.252 -1.594,-10.095 -1.36,-6.078 -4.01,-10.867 -5.844,-16.471 0.156,-1.083 1.438,-1.042 1.594,-2.125 -7.087,-7.252 -6.165,-16.775 1.594,-21.784 2.395,-1.546 3.545,-1.762 4.782,-4.25 -0.504,-3.747 -2.64,-5.861 -3.188,-9.563 0.471,-1.3 2.589,-0.953 3.188,-2.125 C 9.991,87.8 5.377,88.163 2.688,86.602 3.66,84.969 2.209,84.212 3.219,82.883 c 2.171,-0.521 2.147,0.059 4.782,0 1.844,-4.001 3.899,-7.79 4.25,-13.283 -2.166,-0.395 -1.83,1.712 -4.25,1.062 0.104,-3.084 2.932,-3.444 4.25,-5.313 -0.745,-1.547 -1.831,0.942 -3.188,0.532 -2.838,-2.016 -0.75,-5.741 0,-9.564 1.253,-1.3 0.989,0.793 2.657,0.531 0.822,-0.772 1.116,-2.072 1.063,-3.719 6.564,-2.291 10.916,-6.794 17.002,-9.563 0.374,2.644 1.712,1.908 2.657,3.188 -1.883,2.132 -2.611,2.313 -3.188,5.313 -1.248,0.169 -1.995,0.839 -3.719,0.531 -0.733,1.038 -0.744,2.798 -2.125,3.188 -0.195,1.612 1.731,1.103 2.657,1.594 -2.654,2.848 -4.1,5.928 -3.188,11.158 -2.401,4.752 -1.524,7.989 2.125,10.626 -1.526,4.679 -1.206,9.549 -3.188,12.751 0.387,1.959 1.599,-0.226 2.656,1.063 -0.442,1.683 -1.549,2.701 -2.656,3.719 1.303,3.509 0.271,8.742 -1.062,12.22 0.223,1.193 2.819,0.014 3.188,1.062 -1.376,5.396 -1.076,12.045 -3.188,15.408 -0.127,5.415 4.834,8.062 3.188,13.283 h -3.719 c -1.261,-3.403 -0.739,-6.651 -1.594,-11.158 -0.718,3.178 -2.533,5.26 -3.719,7.97 0.66,2.705 4.106,2.623 4.782,5.313 0.082,1.322 -0.834,1.645 -1.062,2.657 -3.402,0.568 -4.362,-1.305 -6.376,-2.125 -1.061,3.654 -2.872,15.524 5.313,13.283 2.622,-2.868 4.228,-6.753 3.719,-12.752 1.994,0.4 1.158,-2.029 2.656,-2.125 4.418,1.78 9.787,2.611 9.564,9.032 -3.278,3.629 -2.063,11.751 -5.313,15.408 -1.984,-2.001 -0.925,-5.388 -1.594,-7.97 -0.467,-1.805 -2.676,-2.827 -1.594,-4.782 -1.889,-0.825 -0.321,1.805 -1.594,1.595 0.081,7.695 -0.956,14.275 -2.125,20.721 3.21,4.76 3.247,12.693 9.032,14.877 2.016,-2.058 1.657,-6.489 4.25,-7.97 -0.877,-9.732 1.424,-16.287 3.719,-22.847 2.357,-1.963 4.051,-4.502 6.376,-6.376 3.209,-2.585 3.97,-8.045 8.501,-9.032 -0.312,2.835 -1.493,5.338 -3.188,7.438 -0.515,0.638 -1.804,1.126 -2.125,1.594 -0.97,1.409 -1.114,3.515 -2.125,4.782 -1.355,1.698 -4.244,3.134 -5.845,5.313 -0.292,3.311 -0.605,6.204 -0.531,10.095 0.14,7.267 -4.891,14.598 -3.719,19.659 0.83,3.584 4.44,4.53 6.907,7.438 2.66,-2.516 4.441,0.884 6.907,1.594 1.357,-4.284 -4.96,-5.242 -5.844,-9.032 2.792,0.467 5.718,1.658 7.438,3.188 2.884,2.563 3.918,6.988 5.844,10.095 2.046,3.301 5.389,4.613 6.907,7.97 6.618,1.389 13.673,6.978 20.722,3.188 9.902,0.653 15.939,4.007 24.44,0.531 3.138,-4.655 6.426,-9.159 9.032,-14.346 7.644,-2.629 9.234,-11.311 13.814,-17.002 -0.131,-0.577 -1.057,-0.36 -1.062,-1.062 0.902,-9.869 -4.361,-16.698 -4.782,-25.504 -0.097,-2.024 0.466,-3.997 0.532,-6.375 0.05,-1.816 -1.768,-3.953 0.531,-5.313 3.303,2.519 1.298,7.592 2.656,12.22 0.195,0.666 0.72,1.126 1.062,1.595 1.457,1.989 4.817,10.148 4.782,14.345 -0.008,0.955 -0.896,1.681 -1.062,2.657 -0.578,3.363 0.956,7.122 0.531,10.095 -0.317,2.214 -2.198,3.546 -2.126,5.845 2.421,0.003 4.836,-4.29 6.376,-6.907 -1.808,-9.008 -4.205,-21.234 -2.125,-30.816 0.71,-0.529 1.043,-1.437 2.125,-1.594 -1.169,-2.703 -3.635,-5.201 -2.125,-9.033 -0.66,-1.68 -1.545,-0.1 -2.656,-1.594 -0.91,-2.633 -1.584,-5.5 -4.251,-6.376 -0.439,-1.501 0.749,-1.376 0.531,-2.657 -7.493,-2.123 -17.752,-5.941 -22.847,-12.22 -1.725,0.308 -2.472,-0.362 -3.719,-0.531 -0.059,-1.322 -0.996,-1.645 0,-2.657 -2.644,-1.683 -5.063,0.678 -9.033,0.531 -0.508,-1.085 -1.085,-2.102 -1.594,-3.188 -1.711,-0.117 -2.248,0.939 -4.25,0.531 -0.841,-3.498 3.718,-3.83 5.844,-2.657 -0.507,-1.441 -0.232,-3.664 -2.656,-3.188 0.088,-3.277 3.329,-3.401 3.188,-6.907 2.342,-0.979 2.177,0.852 3.72,0 -0.324,-2.891 -0.935,-4.093 0,-8.501 4.169,-0.248 5.438,7.766 9.032,3.188 -1.495,-0.798 -5.385,0.396 -4.781,-3.719 1.389,-1.499 7.521,-1.105 6.906,2.657 3.517,-1.089 3.635,-5.575 6.907,-6.907 1.134,-0.248 1.013,0.759 1.063,1.594 1.379,-1.013 4.951,-1.985 6.906,0 -0.147,1.091 -1.419,1.06 -2.125,1.594 2.78,4.072 -3.089,6.647 -4.25,10.095 5.359,4.735 16.736,3.454 18.596,11.689 4.079,-0.095 7.708,2.533 10.626,0.531 -2.837,-5.382 -2.361,-12.146 -3.719,-18.065 1.768,-1.295 1.98,-4.836 -0.531,-5.844 0.097,-4.738 1.325,-9.697 -0.531,-14.877 2.056,-0.462 1.89,1.297 3.188,1.594 0.589,-2.068 1.47,-3.844 2.657,-5.313 -0.665,-2.169 -2.375,-3.293 -4.251,-4.25 0.611,-0.628 0.602,-1.878 0.531,-3.188 -3.684,-1.63 -5.63,-4.997 -6.376,-9.564 -2.498,0.947 0.708,2.432 0,4.782 -3.045,-0.162 -3.258,-3.557 -4.781,-5.313 -1.045,-1.204 -2.825,-1.827 -4.251,-3.188 -0.625,-0.596 -0.911,-2.067 -1.594,-2.656 -0.536,-0.462 -1.628,-0.08 -2.125,-0.532 -1.778,-1.613 -3.146,-3.993 -5.845,-3.188 1.668,2.583 6.387,2.114 5.845,6.907 -7.686,-3.827 -12.931,-10.093 -19.659,-14.876 -0.08,1.57 1.544,3.75 -0.531,4.25 -2.644,-1.824 -3.623,-4.898 -6.376,-5.313 2.515,3.864 8.485,8.869 9.563,15.939 -0.617,-0.086 -0.945,0.118 -1.062,0.532 -2.036,-0.975 -2.367,-3.655 -3.188,-5.845 -2.333,-0.678 -4.062,-1.96 -5.845,-3.188 -0.439,-1.501 0.749,-1.376 0.531,-2.657 -1.518,-1.316 -3.24,-2.426 -5.313,-3.188 -0.225,2.415 0.24,4.831 -0.531,7.438 -3.564,-1.17 -1.718,0.541 -4.781,0.531 -0.789,-1.415 -1.438,-2.259 -2.126,-4.782 -1.662,-0.108 -3.9,0.358 -4.781,-0.531 -1.004,0.059 -0.369,1.757 -1.594,1.594 0.955,1.239 3.302,3.085 1.594,5.313 3.337,4.102 7.377,7.5 9.032,13.283 -1.843,-0.426 -2.042,0.791 -3.719,0.531 C 80.495,52.715 69.901,46.13 57.414,41.438 c -1.395,2.248 1.878,1.204 1.062,4.25 -2.65,2.291 -6.41,-1.585 -9.033,-2.656 -1.797,1.229 -3.801,1.044 -5.844,0 -3.769,0.561 -6.926,5.657 -10.095,2.125 0.348,-2.669 1.15,-2.47 0.531,-5.313 7.235,-0.458 10.891,-3.107 9.564,-8.501 6.367,-3.05 15.387,0.921 20.721,0.531 1.402,-0.6 -2.144,-0.628 -1.062,-2.657 5.454,-0.446 10.736,3.75 15.408,5.845 1.284,-0.314 -1.782,-1.022 0,-2.125 -7.784,-6.117 -24.735,-6.741 -35.598,-2.125 -7.331,0.107 -10.21,4.667 -15.939,6.375 -0.457,-0.429 -0.315,-1.455 -1.062,-1.594 1.713,-5.549 9.821,-4.701 12.751,-9.033 4.305,-1.185 8.068,-2.912 11.689,-4.782 1.817,-0.224 1.597,1.591 2.656,2.125 4.31,-1.603 14.344,1.889 16.471,-2.657 -1.329,-1.804 -2.043,1.457 -4.25,0.531 -1.067,-1.083 0.234,-1.042 0.531,-2.125 -1.378,0.57 -2.605,1.291 -4.782,1.062 -2.718,-2.418 -4.81,-5.463 -5.845,-9.564 -2.704,1.845 -4.702,-0.139 -7.438,-1.062 0.035,-2.445 0.729,-4.23 1.593,-5.844 1.521,-0.377 1.396,0.811 2.677,0.593 -0.134,-1.777 -2.661,-2.918 -1.063,-4.782 5.732,0.327 6.271,10.349 9.032,15.408 1.86,0.09 1.673,-1.869 2.656,-2.656 15.932,-5.63 36.595,-8.674 55.789,-7.97 2.882,0.105 6.048,1.09 9.032,1.062 4.129,-0.038 10.624,0.173 14.877,3.188 -0.562,2.449 -6.472,-0.45 -6.376,2.656 -8.725,-0.886 -15.859,-1.757 -22.847,-1.062 3.271,1.59 10.844,-0.034 13.814,3.188 -1.078,3.459 -5.626,0.185 -9.033,1.062 0.47,1.17 2.042,1.76 3.188,2.125 6.201,1.976 14.001,2.965 21.253,4.782 3.812,2.032 7.092,4.597 11.157,6.376 1.164,3.039 0.206,4.483 0.531,6.907 -3.198,1.449 -5.249,-2.43 -6.907,-4.25 -2.73,1.935 1.936,2.132 1.062,5.313 2.268,2.11 6.396,2.916 10.096,2.125 0.995,1.012 0.058,1.335 0,2.657 1.981,1.155 2.606,0.508 4.781,1.062 -0.289,3.66 -1.226,3.261 0.531,5.845 -2.71,0.072 -3.82,-1.477 -5.83,-2.125 z M 54.75,10.095 C 55.168,8.26 54.254,7.758 53.156,7.438 c 0.491,0.927 -0.018,2.853 1.594,2.657 z M 114.786,7.97 c -1.474,-0.261 -6.466,0.269 -2.656,0.531 2.308,-0.417 3.849,1.481 4.25,-1.063 -0.72,-0.022 -1.16,0.251 -1.59,0.532 z m -15.405,2.125 c 1.004,-1.653 4.647,-0.666 6.376,-1.594 1.271,-0.324 3.854,0.667 4.25,-0.531 h -5.312 c -3.401,1.203 -9.276,-0.066 -12.221,1.594 2.371,1.097 4.349,-0.548 6.906,0.531 z m -29.223,4.251 c 3.541,0.221 4.985,0.736 7.438,1.062 -0.204,1.744 -1.554,2.343 -2.125,3.719 3.558,-0.63 5.689,0.567 8.501,-0.531 -1.206,-0.919 -4.455,0.205 -4.782,-1.594 -0.26,-1.677 0.958,-1.876 0.531,-3.719 3.075,-1.353 7.796,-1.06 10.096,-3.188 -7.027,0.944 -14.836,1.104 -19.659,4.251 z m 42.508,-3.72 c -0.795,0.091 -1.961,-0.189 -2.126,0.531 0.8,-0.09 1.96,0.191 2.13,-0.531 z m -7.97,7.97 c -0.681,-2.783 -6.252,-4.795 -8.501,-2.656 3.169,0.547 6.151,1.289 8.501,2.656 z M 90.88,18.065 c -5.332,-2.336 -4.257,0.935 0,0 z m 23.906,14.877 c 5.125,-1.221 7.007,3.608 10.095,2.657 -1.734,-0.214 -2.626,-1.27 -2.125,-3.719 -10.15,-4.196 -18.933,-9.758 -30.285,-12.752 0.421,1.838 -0.591,2.243 -1.062,3.188 1.935,1.081 3.173,0.091 4.782,-0.531 5.305,4.375 13.795,5.202 18.595,11.157 z m -51.535,1.594 c 2.01,1.179 4.093,2.283 5.845,3.719 2.614,-2.316 -2.33,-3.268 -2.125,-6.375 h -1.594 c 0.662,2.256 -1.768,1.42 -2.126,2.656 z m 56.855,6.376 c -1.99,-4.743 -8.146,-8.144 -12.752,-8.501 4.15,2.93 8.9,5.259 12.75,8.501 z M 82.379,36.661 c -0.504,-0.443 -1.716,-2.807 -2.657,-1.062 0.974,-0.028 1.799,2.722 2.657,1.062 z m 6.376,4.251 h 1.062 c 0.826,-1.308 -1.805,-1.562 -1.594,-0.531 0.324,0.03 0.629,0.079 0.532,0.531 z m 80.761,10.626 c -0.986,-0.295 -3.807,-1.45 -4.25,-0.531 0.82,1.226 3.34,2.294 4.25,0.531 z m -30.82,3.188 c 0.533,-0.002 0.633,0.43 1.062,0.531 -0.051,-0.835 0.071,-1.842 -1.062,-1.594 z M 12.246,107.33 c -4.342,2.083 -12.842,7.52 -7.438,12.752 0.178,-1.771 1.54,-2.357 1.063,-4.782 2.634,-2.501 8.366,-1.906 10.626,-4.782 -2.084,-0.4 -1.827,-3.14 -4.251,-3.19 z m 148.24,1.06 c -0.74,0.712 -5.222,0.398 -3.188,2.125 0.19,-1.26 4.49,-1.14 3.19,-2.13 z m -44.63,2.12 c 3.884,0.606 11.762,3.524 15.408,4.25 -3.25,-2.02 -12.38,-8.3 -15.41,-4.25 z m 40.91,6.38 c 8.219,-4.079 13.976,6.923 7.971,10.626 -0.513,-2.499 0.341,-6.363 -1.595,-7.438 -2.46,0.905 -4.215,2.515 -4.781,5.313 2.274,1.622 4.756,3.036 5.844,5.845 -2.146,5.646 -4.819,10.765 -11.157,12.22 -0.012,4.239 -0.896,7.604 -0.531,12.22 2.411,0.286 3.183,-1.068 4.782,-1.594 -0.447,-1.324 -0.696,-2.847 -0.532,-4.782 0.941,-1.715 1.594,-3.72 2.126,-5.844 1.704,-1.659 4.945,-4.985 6.376,-8.501 0.519,-1.276 0.089,-3.223 0.531,-4.782 1.254,-4.425 3.572,-7.932 3.188,-11.158 -0.36,-3.022 -3.218,-4.99 -3.188,-7.97 -5.86,-0.92 -7.38,2.52 -9.03,5.83 z m -1.07,-3.72 c -3.97,-0.63 -1.71,1.63 0,0 z m -44.1,6.38 c 3.854,0.396 5.55,2.952 8.501,4.251 0.979,-2.185 4.095,0.312 5.844,-1.594 -2.683,-1.154 -8.01,-3.119 -4.781,-6.907 -2.375,-0.282 -4.064,-1.249 -6.376,-1.594 -0.62,2.37 -1.84,4.16 -3.18,5.84 z m -100.41,6.9 c 1.514,-2.223 4.551,-2.591 6.907,-2.656 0.758,-2.352 -1.798,-1.39 -1.594,-3.188 -4.034,1.833 -4.921,-1.973 -7.438,-3.188 -0.82,3.15 -0.799,8.09 2.125,9.04 z m 133.89,-7.97 c 0.468,1.707 -1.751,0.728 -1.594,2.125 1.252,0.519 3.37,0.171 3.188,2.125 -1.479,1.251 -3.979,-1.272 -4.781,1.063 2.069,0.764 3.646,2.021 4.781,3.719 1.256,-1.247 -0.086,-2.61 0,-4.25 2.537,-1.005 3.414,-3.671 4.782,-5.845 -2.16,0.85 -3.79,3.61 -6.38,1.08 z m -25.5,6.91 c 0.842,1.106 4.218,-0.322 3.719,2.125 2.087,-0.56 2.932,-0.78 4.251,-1.063 -1.755,-0.371 -2.786,-1.465 -4.251,-2.125 -0.46,1.13 -3.39,-0.21 -3.72,1.05 z m 24.44,4.25 v -2.125 c -1.74,-0.12 -2.1,2.49 0,2.12 z m 10.09,11.69 c 0.535,-4.069 3.051,-6.158 3.188,-10.626 h -1.595 c 1.83,5.42 -5.13,6.95 -1.59,10.63 z m -17.53,-9.03 c -0.535,1.598 1.184,0.941 2.125,1.062 0.356,1.202 2.396,3.434 3.188,1.062 -2.137,-0.166 -1.911,-2.693 -4.251,-2.656 -0.12,0.42 -0.45,0.62 -1.06,0.54 z"
   id="path92"
   inkscape:connector-curvature="0"
   style="fill:#ececec;fill-opacity:1" />
          <path
   d="m 25,37.192 c -1.382,4.006 -0.696,3.719 -1.063,8.501 -4.67,3.123 -9.757,5.828 -16.471,6.907 0.417,-2.188 -0.815,-2.727 -0.531,-4.782 5.671,-3.361 12.3,-5.765 15.939,-11.158 1.111,-0.224 1.408,0.365 2.126,0.532 z"
   id="path94"
   inkscape:connector-curvature="0"
   style="fill:#ececec;fill-opacity:1" />
          <path
   d="m 82.383,109.98 c 1.09,0.361 6.135,-0.159 7.438,1.594 -0.123,2.889 -4.056,1.967 -6.907,2.125 -3.587,2.383 0.875,8.229 -1.594,10.626 -3.128,-0.415 -4.232,-2.852 -6.376,-4.25 -9.458,3.116 -15.293,9.856 -24.972,12.751 -0.78,-2.694 2.64,-5.402 4.781,-6.907 -6.128,-0.959 -10.652,6.595 -17.002,7.438 -2.645,0.352 -4.908,-2.034 -7.438,0 -1.103,-0.314 -1.812,-1.022 -2.125,-2.125 -1.43,0.229 -2.725,1.994 -4.251,0.531 -0.454,-1.694 0.463,-2.017 1.063,-2.657 -1.107,-1.233 -2.241,0.595 -3.188,-1.062 1.212,-3.393 4.668,-4.542 7.438,-6.376 -0.165,-0.721 -1.331,-0.441 -2.125,-0.531 0.292,-2.119 0.292,-1.6 0,-3.719 5.476,-1.963 9.875,-5.001 14.877,-7.438 1.016,0.224 2.287,0.192 2.125,1.594 4.139,-1.528 8.283,-3.051 13.283,-3.719 -0.576,-2.79 -1.726,-5.005 -2.657,-7.438 -3.191,0.534 -4.637,-0.676 -5.844,-2.125 -1.657,0.688 -2.495,4.285 -5.313,2.125 0.612,-4.347 4.236,-5.682 6.907,-7.97 1.588,0.183 2.115,1.426 2.656,2.656 0.531,-1.239 1.169,-2.374 2.125,-3.188 -1.061,-1.241 -2.457,-2.147 -2.125,-4.782 h 3.188 c 0.325,3.227 5.691,5.234 3.188,7.97 2.163,0.562 2.517,-0.149 5.312,0 1.125,3.481 4.484,4.726 6.376,7.438 1.677,0.26 1.877,-0.958 3.72,-0.531 1.815,-2.435 2.549,-5.953 6.376,-6.376 2.011,3.925 -2.826,5.216 -2.126,9.564 0.435,1.336 2.802,0.741 3.72,1.594 -0.305,0.95 0.643,3.14 -0.53,3.2 z m -40.912,8.5 c 1.675,3.024 9.58,3.814 11.689,0.531 -4.906,1.05 -2.836,-4.756 -4.782,-5.313 -1.627,2.27 -6.025,1.77 -6.907,4.78 z"
   id="path96"
   inkscape:connector-curvature="0"
   style="fill:#ececec;fill-opacity:1" />
          <path
   d="m 45.19,179.05 c -3.118,0.792 0.371,5.216 -2.657,6.376 -1.391,-0.691 -1.869,-2.994 -2.125,-4.251 -1.562,-7.653 2.096,-12.544 3.188,-18.596 3.634,-1.68 3.823,-6.803 7.438,-8.501 -0.452,9.061 -9.376,15.901 -6.376,23.378 4.341,-3.807 7.698,-8.596 8.501,-15.939 h 1.594 c -0.028,-4.03 3.366,-5.896 5.313,-9.032 3.071,-4.947 3.968,-9.611 9.563,-12.221 -0.556,5.044 3.334,8.175 7.97,9.563 -0.333,8.283 9.224,8.71 15.408,7.438 3.609,-2.767 5.215,-7.536 10.627,-8.501 0.818,-1.13 1.917,-1.979 2.656,-3.188 -0.39,-1.842 0.58,-5.04 0,-5.313 3.816,-0.918 4.069,3.92 5.313,6.376 2.842,5.61 6.594,11.298 9.563,16.471 5.532,3.527 6.361,10.018 6.376,18.064 0.096,1.159 -0.436,1.69 -1.595,1.595 0.998,3.76 -2.508,6.851 -2.656,11.157 -2.209,0.979 -3.829,2.547 -4.781,4.782 -3.42,-1.44 0.829,-7.189 1.594,-9.564 -0.905,-1.379 -1.241,2.26 -2.657,2.126 -3.118,0.462 -4.774,-0.538 -6.376,-1.595 0.543,-4.97 -0.515,-8.34 -2.125,-11.157 -2.946,-0.572 -5.342,-2.354 -7.438,-4.251 -14.942,-0.851 -31.165,-2.34 -36.129,9.564 -0.474,0.412 -1.2,0.571 -2.126,0.531 0.958,4.038 -1.192,5.623 -4.781,6.376 -1.92,-1.622 -0.743,-6.342 -1.062,-9.564 6.32,-5.545 14.459,-9.272 23.378,-12.22 -2.736,-7.183 -6.812,-13.025 -12.221,-17.534 -3.314,1.291 -4.134,5.076 -7.438,6.376 -1.073,3.063 -2.264,5.692 -3.719,8.501 -0.376,0.725 -0.685,2.114 -1.063,2.657 -1.773,2.543 -3.235,3.09 -5.312,6.376 -1.299,2.054 -2.321,3.434 -1.062,6.906 1.116,1.342 2.071,-1.341 3.188,0 0.548,1.599 2.751,4.307 1.594,5.845 0.489,2.083 -2.803,0.386 -3.188,1.594 -0.405,1.896 1.646,3.648 -0.531,4.251 -1.636,0.396 -1.021,-1.458 -2.657,-1.062 -0.093,-5.58 -2.409,-8.93 -3.161,-13.85 z m 74.39,-10.09 c -2.34,-3.859 -4.38,-8.019 -7.97,-10.627 -1.918,-0.293 -3.849,1.706 -4.251,3.188 -0.315,1.161 0.384,6.312 1.062,8.501 1.179,3.803 5.31,6.8 6.907,7.438 0.451,-1.144 1.956,-1.232 3.72,-1.062 1.019,1.814 0.617,5.05 3.188,5.312 1.61,-4.87 -3.95,-6.51 -2.66,-12.75 z m 2.65,13.28 c -0.037,0.007 0.033,0.494 0,0.532 -2.52,2.89 2.55,-0.98 0,-0.53 z"
   id="path98"
   inkscape:connector-curvature="0"
   style="fill:#ececec;fill-opacity:1" />
        </g>
      </svg>