<?xml version="1.0" encoding="UTF-8"?>
<svg width="50" height="50" version="1.1" viewBox="0 0 13.229 13.229" xmlns="http://www.w3.org/2000/svg" xmlns:cc="http://creativecommons.org/ns#" xmlns:dc="http://purl.org/dc/elements/1.1/" xmlns:osb="http://www.openswatchbook.org/uri/2009/osb" xmlns:rdf="http://www.w3.org/1999/02/22-rdf-syntax-ns#">
<metadata>
<rdf:RDF>
<cc:Work rdf:about="">
<dc:format>image/svg+xml</dc:format>
<dc:type rdf:resource="http://purl.org/dc/dcmitype/StillImage"/>
<dc:title/>
</cc:Work>
</rdf:RDF>
</metadata>
<g transform="translate(0 -283.77)">
<path transform="matrix(.26458 0 0 .26458 0 283.77)" d="m20.654 2.5879c-9.9662 0-17.99 8.0221-17.99 17.988v0.02148c0 9.9662 8.0241 17.99 17.99 17.99h0.01953c4.0563 0 7.7786-1.3455 10.781-3.5938 0.1167 0.35261 0.33094 0.7185 0.64062 1.0488l9.8594 10.518c0.75798 0.80852 1.7643 1.0755 2.2578 0.59766l2.2637-2.1914c0.49356-0.47781 0.28142-1.5137-0.47656-2.3223l-9.8594-10.518c-0.33491-0.35724-0.7175-0.60042-1.084-0.72852 2.2569-3.0059 3.6074-6.7359 3.6074-10.801v-0.02148c0-9.9662-8.0241-17.988-17.99-17.988zm-0.16992 2.9941h0.01758c8.3051 0 14.99 6.687 14.99 14.992v0.01758c0 8.3051-6.6851 14.99-14.99 14.99h-0.01758c-8.3051 0-14.992-6.6851-14.992-14.99v-0.01758c0-8.3051 6.687-14.992 14.992-14.992z" fill="#cddc23" opacity=".50495" stroke-miterlimit="3.4" stroke-width="0" style="paint-order:stroke fill markers"/>
<rect x="14.99" y="274.64" width="9.974" height="9.974" ry="4.9841" fill="#fff" stroke-opacity="0" style="paint-order:stroke fill markers"/>
</g>
</svg>
